<?xml version="1.0" encoding="UTF-8" standalone="no"?>
<svg
   shape-rendering="geometricPrecision"
   text-rendering="geometricPrecision"
   image-rendering="optimizeQuality"
   fill-rule="evenodd"
   clip-rule="evenodd"
   viewBox="0 0 512 512"
   version="1.1"
   id="svg1"
   sodipodi:docname="chevron-direction-top-yellow.svg"
   inkscape:version="1.3.2 (091e20e, 2023-11-25, custom)"
   xmlns:inkscape="http://www.inkscape.org/namespaces/inkscape"
   xmlns:sodipodi="http://sodipodi.sourceforge.net/DTD/sodipodi-0.dtd"
   xmlns="http://www.w3.org/2000/svg"
   xmlns:svg="http://www.w3.org/2000/svg">
  <defs
     id="defs1" />
  <sodipodi:namedview
     id="namedview1"
     pagecolor="#ffffff"
     bordercolor="#000000"
     borderopacity="0.25"
     inkscape:showpageshadow="2"
     inkscape:pageopacity="0.0"
     inkscape:pagecheckerboard="0"
     inkscape:deskcolor="#d1d1d1"
     inkscape:zoom="0.97070312"
     inkscape:cx="255.48491"
     inkscape:cy="256"
     inkscape:window-width="1366"
     inkscape:window-height="697"
     inkscape:window-x="-8"
     inkscape:window-y="-8"
     inkscape:window-maximized="1"
     inkscape:current-layer="svg1" />
  <path
     fill-rule="nonzero"
     d="M256 512c70.684 0 134.695-28.658 181.019-74.981C483.342 390.695 512 326.691 512 256s-28.658-134.695-74.981-181.019C390.695 28.658 326.691 0 256 0S121.305 28.658 74.981 74.981C28.658 121.305 0 185.309 0 256s28.658 134.695 74.981 181.019C121.305 483.342 185.309 512 256 512zm-79.003-200.641c-30.983 17.861-46.316-6.963-29.012-25.063l88.741-101.046c16.129-16.136 22.426-16.136 38.563 0l88.741 101.046c17.18 18.187 2.203 42.867-29.02 25.063l-79.003-46.932-79.01 46.932z"
     id="path1"
     style="fill:#f9db5c;fill-opacity:1" />
</svg>
