<?xml version="1.0" encoding="UTF-8"?>
<!DOCTYPE svg PUBLIC "-//W3C//DTD SVG 1.1//EN" "http://www.w3.org/Graphics/SVG/1.1/DTD/svg11.dtd">
<!-- Creator: CorelDRAW -->
<svg xmlns="http://www.w3.org/2000/svg" xml:space="preserve" width="74.869mm" height="74.869mm" version="1.1" style="shape-rendering:geometricPrecision; text-rendering:geometricPrecision; image-rendering:optimizeQuality; fill-rule:evenodd; clip-rule:evenodd"
viewBox="0 0 7486.9 7486.9"
 xmlns:xlink="http://www.w3.org/1999/xlink"
 xmlns:xodm="http://www.corel.com/coreldraw/odm/2003">
 <defs>
  <style type="text/css">
   <![CDATA[
    .fil0 {fill:black}
   ]]>
  </style>
 </defs>
 <g id="Layer_x0020_1">
  <metadata id="CorelCorpID_0Corel-Layer"/>
  <path class="fil0" d="M3743.45 0c2067.45,0 3743.45,1676 3743.45,3743.45 0,2067.45 -1676,3743.45 -3743.45,3743.45 -2067.45,0 -3743.45,-1676 -3743.45,-3743.45 0,-2067.45 1676,-3743.45 3743.45,-3743.45zm0 944.95c1545.57,0 2798.5,1252.93 2798.5,2798.5 0,1545.57 -1252.93,2798.5 -2798.5,2798.5 -1545.57,0 -2798.5,-1252.93 -2798.5,-2798.5 0,-1545.57 1252.93,-2798.5 2798.5,-2798.5z"/>
  <circle class="fil0" cx="3743.45" cy="3743.45" r="648.97"/>
  <rect class="fil0" x="3405.93" y="1611.4" width="675.03" height="2132.05" rx="337.52" ry="250.06"/>
  <rect class="fil0" transform="matrix(-0.602525 0.7981 -0.591291 -0.446395 5648.38 4758.7)" width="675.03" height="2877.75" rx="337.52" ry="337.52"/>
 </g>
</svg>
