<?xml version="1.0" encoding="UTF-8"?>
<!DOCTYPE svg PUBLIC "-//W3C//DTD SVG 1.1//EN" "http://www.w3.org/Graphics/SVG/1.1/DTD/svg11.dtd">
<!-- Creator: CorelDRAW -->
<svg xmlns="http://www.w3.org/2000/svg" xml:space="preserve" width="27.9824mm" height="28.2844mm" version="1.1" style="shape-rendering:geometricPrecision; text-rendering:geometricPrecision; image-rendering:optimizeQuality; fill-rule:evenodd; clip-rule:evenodd"
viewBox="0 0 2798.24 2828.44"
 xmlns:xlink="http://www.w3.org/1999/xlink"
 xmlns:xodm="http://www.corel.com/coreldraw/odm/2003">
 <defs>
  <style type="text/css">
   <![CDATA[
    .fil1 {fill:#FEFEFE}
    .fil0 {fill:#20A148}
   ]]>
  </style>
 </defs>
 <g id="Layer_x0020_1">
  <metadata id="CorelCorpID_0Corel-Layer"/>
  <g id="_2484413880256">
   <path class="fil0" d="M1284.28 2527.66l280.53 0c-47.58,5.95 -96.03,9.04 -145.22,9.04 -46.49,0 -91.74,-3.32 -135.31,-9.04zm-57.39 -9.05l397.7 0c-19.75,3.53 -39.69,6.53 -59.78,9.05l-280.53 0c-19.48,-2.57 -38.63,-5.6 -57.39,-9.05zm-44.32 -9.05l486.99 0c-14.9,3.28 -29.87,6.35 -44.97,9.05l-397.7 0c-15.02,-2.77 -29.8,-5.8 -44.32,-9.05zm-37.57 -9.04l562.88 0c-12.69,3.24 -25.48,6.21 -38.32,9.04l-486.99 0c-12.73,-2.85 -25.26,-5.88 -37.57,-9.04zm-33.25 -9.05l629.23 0c-10.97,3.16 -22,6.2 -33.1,9.05l-562.88 0c-11.27,-2.91 -22.36,-5.93 -33.25,-9.05zm-764.21 -9.05l13.04 0 -14.65 4.78 1.61 -4.78zm734.09 0l689.15 0c-9.87,3.14 -19.8,6.17 -29.8,9.05l-629.23 0c-10.22,-2.94 -20.26,-5.96 -30.12,-9.05zm-731.06 -9.05l37.74 0 -27.73 9.05 -13.04 0 3.03 -9.05zm703.26 0l744.22 0c-9.04,3.13 -18.13,6.14 -27.27,9.05l-689.15 0c-9.44,-2.96 -18.71,-5.97 -27.8,-9.05zm-700.23 -9.04l62.43 0 -27.72 9.04 -37.74 0 3.03 -9.04zm674.34 0l795.35 0c-8.37,3.11 -16.78,6.12 -25.24,9.04l-744.22 0c-8.79,-2.97 -17.43,-5.99 -25.89,-9.04zm-671.31 -9.05l87.13 0 -27.73 9.05 -62.43 0 3.03 -9.05zm646.97 0l843.29 0c-7.82,3.11 -15.69,6.1 -23.6,9.05l-795.35 0c-8.28,-2.99 -16.4,-6.01 -24.34,-9.05zm-643.93 -9.05l111.82 0 -27.73 9.05 -87.13 0 3.04 -9.05zm620.9 0l888.48 0c-7.35,3.1 -14.74,6.1 -22.16,9.05l-843.29 0c-7.84,-3 -15.52,-6.02 -23.03,-9.05zm-617.87 -9.05l136.51 0 -27.72 9.05 -111.82 0 3.03 -9.05zm596 0l931.11 0c-6.89,3.07 -13.8,6.11 -20.76,9.05l-888.48 0c-7.46,-3.01 -14.76,-6.03 -21.87,-9.05zm-592.97 -9.04l161.21 0 -27.73 9.04 -136.51 0 3.03 -9.04zm572.1 0l971.76 0c-6.57,3.07 -13.15,6.09 -19.78,9.04l-931.11 0c-7.14,-3.02 -14.1,-6.04 -20.87,-9.04zm-569.07 -9.05l185.91 0 -27.73 9.05 -161.21 0 3.03 -9.05zm549.11 0l1010.66 0c-6.28,3.08 -12.6,6.08 -18.94,9.05l-971.76 0c-6.84,-3.04 -13.5,-6.06 -19.96,-9.05zm-546.08 -9.05l210.61 0 -27.73 9.05 -185.91 0 3.03 -9.05zm526.91 0l1048.03 0c-6.03,3.09 -12.12,6.07 -18.2,9.05l-1010.66 0c-6.59,-3.05 -12.99,-6.07 -19.17,-9.05zm-523.87 -9.05l235.29 0 -27.72 9.05 -210.61 0 3.04 -9.05zm505.48 0l1083.57 0c-5.7,3.04 -11.39,6.1 -17.15,9.05l-1048.03 0c-6.36,-3.07 -12.49,-6.09 -18.39,-9.05zm-502.45 -9.04l259.99 0 -27.73 9.04 -235.29 0 3.03 -9.04zm484.74 0l1117.9 0c-5.51,3.06 -11.05,6.07 -16.62,9.04l-1083.57 0c-6.17,-3.09 -12.06,-6.1 -17.71,-9.04zm-481.71 -9.05l284.69 0 -27.73 9.05 -259.99 0 3.03 -9.05zm464.65 0l1151.11 0c-5.35,3.08 -10.76,6.05 -16.15,9.05l-1117.9 0c-5.98,-3.12 -11.68,-6.14 -17.06,-9.05zm-461.62 -9.05l309.39 0 -27.73 9.05 -284.69 0 3.03 -9.05zm445.2 0l1182.83 0c-5.09,3.04 -10.17,6.09 -15.3,9.05l-1151.11 0c-5.85,-3.16 -11.32,-6.18 -16.42,-9.05zm-442.16 -9.04l334.07 0 -27.72 9.04 -309.39 0 3.04 -9.04zm426.37 0l1213.54 0c-4.95,3.05 -9.92,6.06 -14.92,9.04l-1182.83 0c-5.75,-3.23 -11.02,-6.26 -15.79,-9.04zm-423.34 -9.05l358.77 0 -27.73 9.05 -334.07 0 3.03 -9.05zm408.19 0l1243.19 0c-4.8,3.06 -9.65,6.05 -14.5,9.05l-1213.54 0c-5.8,-3.4 -10.88,-6.44 -15.15,-9.05zm-405.16 -9.05l383.46 0 -27.72 9.05 -358.77 0 3.03 -9.05zm390.77 0l1271.45 0c-4.61,3.03 -9.22,6.08 -13.87,9.05l-1243.19 0c-6.9,-4.22 -11.73,-7.32 -14.39,-9.05zm-387.74 -9.05l1672.84 0c-4.52,3.07 -9.09,6.05 -13.65,9.05l-1271.45 0c-1.57,-1.02 -2.42,-1.59 -2.42,-1.59l-4.89 1.59 -383.46 0 3.03 -9.05zm3.03 -9.04l1682.86 0c-4.34,3.03 -8.67,6.07 -13.05,9.04l-1672.84 0 3.03 -9.04zm3.04 -9.05l1692.62 0c-4.24,3.05 -8.52,6.05 -12.8,9.05l-1682.86 0 3.04 -9.05zm3.03 -9.05l1702 0c-4.12,3.04 -8.25,6.06 -12.41,9.05l-1692.62 0 3.03 -9.05zm3.03 -9.05l1711.03 0c-4.01,3.04 -8.02,6.06 -12.06,9.05l-1702 0 3.03 -9.05zm3.03 -9.04l1719.79 0c-3.91,3.04 -7.85,6.05 -11.79,9.04l-1711.03 0 3.03 -9.04zm3.03 -9.05l1728.17 0c-3.79,3.03 -7.58,6.06 -11.41,9.05l-1719.79 0 3.03 -9.05zm3.04 -9.05l1736.37 0c-3.72,3.05 -7.48,6.04 -11.24,9.05l-1728.17 0 3.04 -9.05zm3.03 -9.05l1744.16 0c-3.6,3.03 -7.19,6.07 -10.82,9.05l-1736.37 0 3.03 -9.05zm3.03 -9.04l1751.83 0c-3.54,3.05 -7.13,6.04 -10.7,9.04l-1744.16 0 3.03 -9.04zm3.03 -9.05l1759.1 0c-3.43,3.02 -6.84,6.06 -10.3,9.05l-1751.83 0 3.03 -9.05zm3.04 -9.05l1766.26 0c-3.37,3.05 -6.79,6.04 -10.2,9.05l-1759.1 0 3.04 -9.05zm3.03 -9.05l1773.07 0c-3.28,3.03 -6.54,6.07 -9.84,9.05l-1766.26 0 3.03 -9.05zm3.03 -9.04l1779.75 0c-3.21,3.04 -6.46,6.04 -9.71,9.04l-1773.07 0 3.03 -9.04zm3.03 -9.05l1786.15 0c-3.13,3.03 -6.26,6.06 -9.43,9.05l-1779.75 0 3.03 -9.05zm3.04 -9.05l1792.38 0c-3.07,3.04 -6.17,6.05 -9.27,9.05l-1786.15 0 3.04 -9.05zm3.03 -9.04l1798.39 0c-3,3.03 -6.01,6.04 -9.04,9.04l-1792.38 0 3.03 -9.04zm3.03 -9.05l1804.19 0c-2.93,3.03 -5.86,6.05 -8.83,9.05l-1798.39 0 3.03 -9.05zm3.03 -9.05l1809.87 0c-2.88,3.04 -5.8,6.04 -8.71,9.05l-1804.19 0 3.03 -9.05zm3.03 -9.05l1815.26 0c-2.8,3.02 -5.59,6.06 -8.42,9.05l-1809.87 0 3.03 -9.05zm3.04 -9.04l1820.62 0c-2.77,3.04 -5.6,6.03 -8.4,9.04l-1815.26 0 3.04 -9.04zm3.03 -9.05l1825.62 0c-2.68,3.01 -5.32,6.06 -8.03,9.05l-1820.62 0 3.03 -9.05zm3.03 -9.05l1830.61 0c-2.64,3.04 -5.34,6.03 -8.02,9.05l-1825.62 0 3.03 -9.05zm3.03 -9.05l1835.32 0c-2.57,3.02 -5.13,6.06 -7.74,9.05l-1830.61 0 3.03 -9.05zm3.04 -9.04l1839.93 0c-2.53,3.03 -5.09,6.04 -7.65,9.04l-1835.32 0 3.04 -9.04zm3.03 -9.05l1844.4 0c-2.48,3.03 -4.99,6.04 -7.5,9.05l-1839.93 0 3.03 -9.05zm3.03 -9.05l1848.66 0c-2.43,3.02 -4.84,6.05 -7.29,9.05l-1844.4 0 3.03 -9.05zm3.03 -9.05l1852.9 0c-2.39,3.05 -4.85,6.03 -7.27,9.05l-1848.66 0 3.03 -9.05zm3.03 -9.04l1856.81 0c-2.32,3.01 -4.59,6.06 -6.94,9.04l-1852.9 0 3.03 -9.04zm3.04 -9.05l1860.71 0c-2.29,3.03 -4.62,6.04 -6.94,9.05l-1856.81 0 3.04 -9.05zm3.03 -9.05l1864.42 0c-2.24,3.03 -4.48,6.05 -6.74,9.05l-1860.71 0 3.03 -9.05zm-5.65 -9.05l1876.67 0c-2.19,3.03 -4.39,6.05 -6.6,9.05l-1864.42 0 0.2 -0.61c0,0 -2.09,-2.9 -5.85,-8.44zm-6.04 -9.04l1889.27 0c-2.16,3.04 -4.38,6.03 -6.56,9.04l-1876.67 0c-1.68,-2.49 -3.71,-5.5 -6.04,-9.04zm-5.88 -9.05l1901.42 0c-2.09,3.01 -4.14,6.06 -6.27,9.05l-1889.27 0c-1.79,-2.72 -3.75,-5.73 -5.88,-9.05zm-5.74 -9.05l1913.44 0c-2.07,3.04 -4.18,6.04 -6.28,9.05l-1901.42 0c-1.8,-2.8 -3.73,-5.83 -5.74,-9.05zm-5.63 -9.04l1925.16 0c-2.02,3.02 -4.04,6.04 -6.09,9.04l-1913.44 0c-1.8,-2.85 -3.68,-5.87 -5.63,-9.04zm-5.51 -9.05l1936.62 0c-1.97,3.02 -3.95,6.04 -5.95,9.05l-1925.16 0c-1.78,-2.9 -3.61,-5.9 -5.51,-9.05zm-5.4 -9.05l1947.98 0c-1.95,3.04 -3.98,6.03 -5.96,9.05l-1936.62 0c-1.76,-2.91 -3.56,-5.93 -5.4,-9.05zm-5.31 -9.05l1958.94 0c-1.89,3.01 -3.73,6.06 -5.65,9.05l-1947.98 0c-1.73,-2.92 -3.51,-5.94 -5.31,-9.05zm-5.21 -9.04l1969.8 0c-1.87,3.03 -3.76,6.03 -5.65,9.04l-1958.94 0c-1.71,-2.93 -3.45,-5.95 -5.21,-9.04zm-5.13 -9.05l1980.46 0c-1.82,3.03 -3.68,6.04 -5.53,9.05l-1969.8 0c-1.69,-2.95 -3.39,-5.96 -5.13,-9.05zm-5.03 -9.05l1990.84 0c-1.78,3.02 -3.54,6.05 -5.35,9.05l-1980.46 0c-1.65,-2.95 -3.33,-5.97 -5.03,-9.05zm-4.95 -9.05l2001.14 0c-1.75,3.04 -3.57,6.04 -5.35,9.05l-1990.84 0c-1.63,-2.96 -3.28,-5.97 -4.95,-9.05zm-4.86 -9.04l2011.14 0c-1.71,3.01 -3.4,6.04 -5.14,9.04l-2001.14 0c-1.6,-2.96 -3.23,-5.97 -4.86,-9.04zm-4.78 -9.05l2020.98 0c-1.67,3.02 -3.36,6.04 -5.06,9.05l-2011.14 0c-1.58,-2.97 -3.18,-5.99 -4.78,-9.05zm-4.7 -9.05l2030.74 0c-1.65,3.04 -3.38,6.03 -5.06,9.05l-2020.98 0c-1.55,-2.97 -3.12,-5.99 -4.7,-9.05zm-4.61 -9.04l2040.12 0c-1.6,3.01 -3.15,6.05 -4.77,9.04l-2030.74 0c-1.53,-2.97 -3.07,-5.99 -4.61,-9.04zm-4.54 -9.05l2049.43 0c-1.57,3.02 -3.17,6.04 -4.77,9.05l-2040.12 0c-1.51,-2.98 -3.02,-6 -4.54,-9.05zm-4.47 -9.05l2058.6 0c-1.54,3.03 -3.13,6.03 -4.7,9.05l-2049.43 0c-1.49,-2.98 -2.97,-6 -4.47,-9.05zm-4.39 -9.05l2067.49 0c-1.51,3.02 -2.97,6.05 -4.5,9.05l-2058.6 0c-1.46,-2.98 -2.92,-5.99 -4.39,-9.05zm-4.32 -9.04l2076.3 0c-1.47,3.02 -2.99,6.03 -4.49,9.04l-2067.49 0c-1.43,-2.99 -2.87,-5.99 -4.32,-9.04zm-4.23 -9.05l2084.9 0c-1.44,3.02 -2.9,6.04 -4.37,9.05l-2076.3 0c-1.41,-2.98 -2.82,-6.01 -4.23,-9.05zm-4.15 -9.05l2093.27 0c-1.41,3.02 -2.79,6.05 -4.22,9.05l-2084.9 0c-1.38,-2.98 -2.77,-6.01 -4.15,-9.05zm-4.09 -9.05l2101.59 0c-1.38,3.03 -2.82,6.04 -4.23,9.05l-2093.27 0c-1.37,-2.99 -2.73,-6 -4.09,-9.05zm-4.02 -9.04l2109.65 0c-1.34,3.01 -2.68,6.04 -4.04,9.04l-2101.59 0c-1.34,-2.99 -2.68,-6 -4.02,-9.04zm-3.94 -9.05l2117.55 0c-1.31,3.02 -2.62,6.04 -3.96,9.05l-2109.65 0c-1.31,-3 -2.63,-6.01 -3.94,-9.05zm-3.85 -9.05l2125.36 0c-1.29,3.04 -2.65,6.03 -3.96,9.05l-2117.55 0c-1.29,-2.99 -2.57,-6.01 -3.85,-9.05zm-3.8 -9.04l2132.9 0c-1.25,3.01 -2.47,6.04 -3.74,9.04l-2125.36 0c-1.27,-2.99 -2.54,-6.01 -3.8,-9.04zm-3.73 -9.05l2140.33 0c-1.23,3.02 -2.45,6.04 -3.7,9.05l-2132.9 0c-1.25,-3.01 -2.49,-6.01 -3.73,-9.05zm-3.64 -9.05l2147.66 0c-1.2,3.03 -2.47,6.03 -3.69,9.05l-2140.33 0c-1.22,-2.99 -2.43,-6.02 -3.64,-9.05zm-3.57 -9.05l2154.69 0c-1.16,3.01 -2.27,6.05 -3.46,9.05l-2147.66 0c-1.19,-2.99 -2.38,-6.02 -3.57,-9.05zm-3.52 -9.05l2161.65 0c-1.14,3.03 -2.28,6.04 -3.44,9.05l-2154.69 0c-1.17,-3 -2.35,-6.01 -3.52,-9.05zm-3.43 -9.04l2168.51 0c-1.11,3.03 -2.3,6.02 -3.43,9.04l-2161.65 0c-1.15,-2.99 -2.29,-6.01 -3.43,-9.04zm-3.35 -9.05l2175.05 0c-1.07,3.01 -2.09,6.05 -3.19,9.05l-2168.51 0c-1.12,-3 -2.24,-6.02 -3.35,-9.05zm-3.3 -9.05l2181.54 0c-1.05,3.02 -2.11,6.04 -3.19,9.05l-2175.05 0c-1.11,-3.01 -2.21,-6.01 -3.3,-9.05zm-3.21 -9.04l2187.92 0c-1.02,3.03 -2.12,6.02 -3.17,9.04l-2181.54 0c-1.08,-2.99 -2.15,-6.01 -3.21,-9.04zm-3.14 -9.05l2194 0c-0.99,3.01 -1.92,6.04 -2.94,9.05l-2187.92 0c-1.06,-3 -2.1,-6.02 -3.14,-9.05zm-3.09 -9.05l2200.03 0c-0.97,3.02 -1.95,6.04 -2.94,9.05l-2194 0c-1.04,-3.01 -2.07,-6.01 -3.09,-9.05zm-2.99 -9.05l2205.94 0c-0.94,3.04 -1.96,6.03 -2.92,9.05l-2200.03 0c-1.01,-3 -2,-6.02 -2.99,-9.05zm-2.93 -9.04l2211.56 0c-0.91,3.01 -1.76,6.04 -2.69,9.04l-2205.94 0c-0.99,-3 -1.96,-6.01 -2.93,-9.04zm-2.88 -9.05l2217.13 0c-0.88,3.02 -1.78,6.03 -2.69,9.05l-2211.56 0c-0.96,-3.01 -1.93,-6.01 -2.88,-9.05zm-2.76 -9.05l2222.57 0c-0.86,3.03 -1.8,6.03 -2.68,9.05l-2217.13 0c-0.93,-3 -1.84,-6.03 -2.76,-9.05zm-2.72 -9.05l2227.74 0c-0.83,3.02 -1.6,6.05 -2.45,9.05l-2222.57 0c-0.91,-3 -1.82,-6.02 -2.72,-9.05zm-2.64 -9.04l2232.83 0c-0.81,3.02 -1.62,6.03 -2.45,9.04l-2227.74 0c-0.89,-3 -1.77,-6.01 -2.64,-9.04zm-2.56 -9.05l2237.84 0c-0.78,3.03 -1.65,6.03 -2.45,9.05l-2232.83 0c-0.86,-3 -1.72,-6.03 -2.56,-9.05zm-2.52 -9.05l2242.57 0c-0.75,3.01 -1.44,6.05 -2.21,9.05l-2237.84 0c-0.84,-3.01 -1.7,-6.01 -2.52,-9.05zm-2.4 -9.04l2247.17 0c-0.72,3.01 -1.46,6.03 -2.2,9.04l-2242.57 0c-0.81,-3 -1.6,-6.03 -2.4,-9.04zm-2.35 -9.05l2251.73 0c-0.7,3.03 -1.48,6.03 -2.21,9.05l-2247.17 0c-0.79,-3.01 -1.58,-6.02 -2.35,-9.05zm-2.28 -9.05l2256.01 0c-0.68,3.01 -1.3,6.04 -2,9.05l-2251.73 0c-0.77,-3.01 -1.53,-6.02 -2.28,-9.05zm-2.19 -9.05l2260.17 0c-0.65,3.02 -1.3,6.04 -1.97,9.05l-2256.01 0c-0.74,-3 -1.47,-6.02 -2.19,-9.05zm-2.14 -9.05l2264.28 0c-0.63,3.03 -1.32,6.03 -1.97,9.05l-2260.17 0c-0.72,-3.01 -1.45,-6.01 -2.14,-9.05zm-2.03 -9.04l2268.09 0c-0.6,3.01 -1.16,6.04 -1.78,9.04l-2264.28 0c-0.7,-3 -1.36,-6.02 -2.03,-9.04zm-2 -9.05l2271.82 0c-0.57,3.02 -1.14,6.04 -1.73,9.05l-2268.09 0c-0.67,-3.01 -1.35,-6.02 -2,-9.05zm-1.88 -9.05l2275.43 0c-0.54,3.03 -1.16,6.03 -1.73,9.05l-2271.82 0c-0.64,-3 -1.26,-6.02 -1.88,-9.05zm-1.84 -9.04l2278.85 0c-0.52,3.01 -1.03,6.03 -1.58,9.04l-2275.43 0c-0.62,-3 -1.24,-6.02 -1.84,-9.04zm-1.74 -9.05l2282.09 0c-0.49,3.01 -0.98,6.04 -1.5,9.05l-2278.85 0c-0.59,-3.01 -1.17,-6.03 -1.74,-9.05zm-1.67 -9.05l2285.26 0c-0.47,3.03 -1,6.03 -1.5,9.05l-2282.09 0c-0.57,-3.01 -1.13,-6.03 -1.67,-9.05zm-1.61 -9.05l2288.26 0c-0.45,3.02 -0.92,6.04 -1.39,9.05l-2285.26 0c-0.55,-3.01 -1.09,-6.02 -1.61,-9.05zm-1.5 -9.04l2291.02 0c-0.42,3.01 -0.82,6.04 -1.26,9.04l-2288.26 0c-0.52,-3 -1.01,-6.02 -1.5,-9.04zm-1.47 -9.05l2293.76 0c-0.4,3.02 -0.84,6.03 -1.27,9.05l-2291.02 0c-0.5,-3.02 -1.01,-6.02 -1.47,-9.05zm-1.34 -9.05l2296.29 0c-0.37,3.03 -0.79,6.04 -1.19,9.05l-2293.76 0c-0.47,-3.01 -0.9,-6.03 -1.34,-9.05zm-1.31 -9.05l2298.64 0c-0.35,3.02 -0.66,6.05 -1.04,9.05l-2296.29 0c-0.44,-3.01 -0.89,-6.02 -1.31,-9.05zm-1.18 -9.04l2300.85 0c-0.32,3.02 -0.68,6.03 -1.03,9.04l-2298.64 0c-0.41,-3 -0.79,-6.02 -1.18,-9.04zm-1.14 -9.05l2303.01 0c-0.31,3.03 -0.69,6.03 -1.02,9.05l-2300.85 0c-0.39,-3.01 -0.78,-6.02 -1.14,-9.05zm-1.04 -9.05l2304.85 0c-0.28,3.02 -0.5,6.05 -0.8,9.05l-2303.01 0c-0.36,-3.01 -0.7,-6.03 -1.04,-9.05zm-0.97 -9.04l2306.63 0c-0.26,3.02 -0.53,6.03 -0.81,9.04l-2304.85 0c-0.33,-3.01 -0.66,-6.02 -0.97,-9.04zm-0.88 -9.05l2308.31 0c-0.23,3.02 -0.55,6.03 -0.8,9.05l-2306.63 0c-0.31,-3.01 -0.6,-6.03 -0.88,-9.05zm-0.8 -9.05l2309.72 0c-0.21,3.01 -0.38,6.04 -0.61,9.05l-2308.31 0c-0.29,-3.01 -0.55,-6.03 -0.8,-9.05zm-0.74 -9.05l2311.03 0c-0.18,3.02 -0.36,6.04 -0.57,9.05l-2309.72 0c-0.26,-3.01 -0.51,-6.02 -0.74,-9.05zm-0.62 -9.05l2312.22 0c-0.16,3.03 -0.38,6.03 -0.57,9.05l-2311.03 0c-0.22,-3.01 -0.42,-6.03 -0.62,-9.05zm-0.58 -9.04l2313.24 0c-0.14,3.02 -0.27,6.03 -0.44,9.04l-2312.22 0c-0.2,-3.01 -0.41,-6.02 -0.58,-9.04zm-0.45 -9.05l2314.04 0c-0.12,3.02 -0.21,6.04 -0.35,9.05l-2313.24 0c-0.17,-3.01 -0.31,-6.03 -0.45,-9.05zm-0.42 -9.05l2314.8 0c-0.09,3.03 -0.23,6.04 -0.34,9.05l-2314.04 0c-0.14,-3.01 -0.3,-6.02 -0.42,-9.05zm-0.27 -9.04l2315.34 0c-0.06,3.02 -0.18,6.03 -0.27,9.04l-2314.8 0c-0.11,-3 -0.18,-6.02 -0.27,-9.04zm-0.25 -9.05l2315.71 0c-0.05,3.01 -0.05,6.04 -0.12,9.05l-2315.34 0c-0.09,-3.02 -0.19,-6.03 -0.25,-9.05zm-0.1 -9.05l2315.92 0c-0.02,3.02 -0.06,6.03 -0.11,9.05l-2315.71 0c-0.06,-3.01 -0.07,-6.03 -0.1,-9.05zm-0.08 -9.05l2316.07 0 0 3.5c0,1.86 -0.05,3.7 -0.07,5.55l-2315.92 0c-0.03,-3.01 -0.08,-6.02 -0.08,-9.05zm0.11 -9.04l2315.89 0c0.02,1.85 0.05,3.69 0.07,5.54l0 3.5 -2316.07 0 0 0c0,-3.02 0.09,-6.02 0.11,-9.04zm0.12 -9.05l2315.66 0c0.05,3.01 0.07,6.03 0.11,9.05l-2315.89 0c0.05,-3.02 0.07,-6.04 0.12,-9.05zm0.11 -9.05l2315.43 0c0.07,3.01 0.07,6.04 0.12,9.05l-2315.66 0c0.05,-3.01 0.04,-6.04 0.11,-9.05zm0.28 -9.04l2314.88 0c0.09,3.01 0.2,6.02 0.27,9.04l-2315.43 0c0.08,-3.02 0.18,-6.03 0.28,-9.04zm0.34 -9.05l2314.2 0c0.11,3.01 0.24,6.03 0.34,9.05l-2314.88 0c0.1,-3.02 0.23,-6.04 0.34,-9.05zm0.34 -9.05l2313.51 0c0.14,3.01 0.23,6.03 0.35,9.05l-2314.2 0c0.12,-3.02 0.2,-6.04 0.34,-9.05zm0.44 -9.05l2312.64 0c0.16,3.01 0.29,6.03 0.43,9.05l-2313.51 0c0.14,-3.02 0.28,-6.04 0.44,-9.05zm0.58 -9.04l2311.48 0c0.19,3.01 0.41,6.02 0.58,9.04l-2312.64 0c0.17,-3.02 0.39,-6.03 0.58,-9.04zm0.57 -9.05l2310.34 0c0.21,3.01 0.38,6.03 0.57,9.05l-2311.48 0c0.18,-3.02 0.36,-6.04 0.57,-9.05zm0.61 -9.05l2309.12 0c0.23,3.01 0.4,6.03 0.61,9.05l-2310.34 0c0.21,-3.02 0.37,-6.04 0.61,-9.05zm0.8 -9.05l2307.52 0c0.26,3.02 0.57,6.03 0.8,9.05l-2309.12 0c0.23,-3.02 0.54,-6.03 0.8,-9.05zm0.8 -9.04l2305.91 0c0.28,3.01 0.55,6.02 0.81,9.04l-2307.52 0c0.26,-3.02 0.52,-6.03 0.8,-9.04zm0.81 -9.05l2304.3 0c0.3,3.01 0.52,6.03 0.8,9.05l-2305.91 0c0.28,-3.02 0.51,-6.04 0.81,-9.05zm1.01 -9.05l2302.28 0c0.32,3.02 0.7,6.02 1.01,9.05l-2304.3 0c0.3,-3.03 0.68,-6.03 1.01,-9.05zm1.04 -9.05l2300.2 0c0.35,3.02 0.71,6.03 1.04,9.05l-2302.28 0c0.33,-3.02 0.68,-6.03 1.04,-9.05zm1.03 -9.04l2298.14 0c0.37,3 0.68,6.03 1.03,9.04l-2300.2 0c0.35,-3.01 0.66,-6.04 1.03,-9.04zm1.2 -9.05l2295.74 0c0.4,3.02 0.82,6.03 1.2,9.05l-2298.14 0c0.38,-3.02 0.8,-6.03 1.2,-9.05zm1.26 -9.05l2293.21 0c0.43,3.02 0.87,6.03 1.27,9.05l-2295.74 0c0.4,-3.02 0.84,-6.03 1.26,-9.05zm1.27 -9.04l2290.68 0c0.44,3 0.84,6.03 1.26,9.04l-2293.21 0c0.43,-3.01 0.82,-6.04 1.27,-9.04zm1.38 -9.05l2287.91 0c0.48,3.01 0.94,6.03 1.39,9.05l-2290.68 0c0.45,-3.02 0.91,-6.04 1.38,-9.05zm1.5 -9.05l2284.92 0c0.49,3.02 1.02,6.02 1.49,9.05l-2287.91 0c0.48,-3.03 1.01,-6.03 1.5,-9.05zm1.5 -9.05l2281.92 0c0.52,3.01 1,6.04 1.5,9.05l-2284.92 0c0.5,-3.01 0.98,-6.04 1.5,-9.05zm1.58 -9.05l2278.76 0c0.54,3.01 1.05,6.04 1.58,9.05l-2281.92 0c0.52,-3.01 1.04,-6.04 1.58,-9.05zm1.73 -9.04l2275.29 0c0.58,3.02 1.19,6.02 1.74,9.04l-2278.76 0c0.55,-3.02 1.16,-6.02 1.73,-9.04zm1.74 -9.05l2271.82 0c0.6,3.01 1.16,6.03 1.73,9.05l-2275.29 0c0.58,-3.02 1.14,-6.04 1.74,-9.05zm1.78 -9.04l2268.26 0c0.62,3 1.19,6.03 1.78,9.04l-2271.82 0c0.59,-3.01 1.16,-6.04 1.78,-9.04zm1.97 -9.05l2264.32 0c0.65,3.02 1.35,6.02 1.97,9.05l-2268.26 0c0.62,-3.03 1.32,-6.03 1.97,-9.05zm1.97 -9.05l2260.38 0c0.67,3.01 1.32,6.03 1.97,9.05l-2264.32 0c0.65,-3.02 1.3,-6.04 1.97,-9.05zm1.99 -9.05l2256.4 0c0.69,3.01 1.32,6.04 1.99,9.05l-2260.38 0c0.67,-3.01 1.3,-6.04 1.99,-9.05zm2.21 -9.05l2251.98 0c0.72,3.02 1.5,6.02 2.21,9.05l-2256.4 0c0.7,-3.03 1.48,-6.03 2.21,-9.05zm2.21 -9.04l2247.56 0c0.75,3.01 1.48,6.03 2.21,9.04l-2251.98 0c0.72,-3.01 1.46,-6.03 2.21,-9.04zm2.21 -9.05l2243.14 0c0.78,3 1.46,6.03 2.21,9.05l-2247.56 0c0.75,-3.01 1.43,-6.05 2.21,-9.05zm2.44 -9.05l2238.25 0c0.81,3.02 1.67,6.02 2.45,9.05l-2243.14 0c0.78,-3.03 1.64,-6.03 2.44,-9.05zm2.45 -9.04l2233.36 0c0.82,3.01 1.64,6.02 2.44,9.04l-2238.25 0c0.81,-3.02 1.62,-6.03 2.45,-9.04zm2.45 -9.05l2228.46 0c0.85,3 1.62,6.04 2.45,9.05l-2233.36 0c0.83,-3.01 1.6,-6.05 2.45,-9.05zm2.68 -9.05l2223.09 0c0.89,3.02 1.82,6.02 2.69,9.05l-2228.46 0c0.86,-3.03 1.8,-6.03 2.68,-9.05zm2.69 -9.05l2217.71 0c0.91,3.02 1.81,6.03 2.69,9.05l-2223.09 0c0.89,-3.02 1.78,-6.03 2.69,-9.05zm2.69 -9.04l2212.33 0c0.94,3 1.78,6.03 2.69,9.04l-2217.71 0c0.91,-3.01 1.76,-6.04 2.69,-9.04zm2.92 -9.05l2206.49 0c0.97,3.02 1.98,6.02 2.92,9.05l-2212.33 0c0.94,-3.03 1.96,-6.03 2.92,-9.05zm2.94 -9.05l2200.61 0c0.99,3.01 1.98,6.03 2.94,9.05l-2206.49 0c0.97,-3.02 1.95,-6.04 2.94,-9.05zm2.94 -9.05l2194.74 0c1.01,3 1.94,6.04 2.93,9.05l-2200.61 0c0.99,-3.01 1.93,-6.05 2.94,-9.05zm3.17 -9.04l2188.39 0c1.05,3.02 2.15,6.01 3.18,9.04l-2194.74 0c1.02,-3.03 2.12,-6.02 3.17,-9.04zm3.19 -9.05l2182.02 0c1.07,3.01 2.13,6.03 3.18,9.05l-2188.39 0c1.05,-3.02 2.11,-6.04 3.19,-9.05zm3.19 -9.05l2175.64 0c1.1,3 2.11,6.04 3.19,9.05l-2182.02 0c1.07,-3.01 2.09,-6.05 3.19,-9.05zm3.43 -9.05l2168.77 0c1.14,3.03 2.33,6.02 3.44,9.05l-2175.64 0c1.11,-3.03 2.3,-6.02 3.43,-9.05zm3.44 -9.04l2161.89 0c1.16,3.01 2.31,6.02 3.44,9.04l-2168.77 0c1.14,-3.02 2.28,-6.03 3.44,-9.04zm3.46 -9.05l2154.98 0c1.18,3 2.29,6.04 3.45,9.05l-2161.89 0c1.16,-3.01 2.27,-6.05 3.46,-9.05zm3.69 -9.05l2147.59 0c1.22,3.02 2.5,6.02 3.7,9.05l-2154.98 0c1.2,-3.03 2.47,-6.03 3.69,-9.05zm3.7 -9.05l2140.19 0c1.25,3.01 2.48,6.03 3.7,9.05l-2147.59 0c1.23,-3.02 2.45,-6.04 3.7,-9.05zm3.74 -9.04l2132.71 0c1.28,3 2.49,6.03 3.74,9.04l-2140.19 0c1.25,-3.01 2.47,-6.04 3.74,-9.04zm3.96 -9.05l2124.79 0c1.32,3.02 2.68,6.01 3.96,9.05l-2132.71 0c1.29,-3.04 2.65,-6.03 3.96,-9.05zm3.96 -9.05l2116.88 0c1.33,3.01 2.64,6.03 3.95,9.05l-2124.79 0c1.31,-3.02 2.62,-6.04 3.96,-9.05zm4.04 -9.04l2108.79 0c1.37,3 2.7,6.02 4.05,9.04l-2116.88 0c1.34,-3.01 2.68,-6.04 4.04,-9.04zm4.23 -9.05l2100.34 0c1.4,3.02 2.84,6.02 4.22,9.05l-2108.79 0c1.39,-3.03 2.82,-6.03 4.23,-9.05zm4.22 -9.05l2091.89 0c1.43,3 2.82,6.03 4.23,9.05l-2100.34 0c1.4,-3.02 2.79,-6.05 4.22,-9.05zm4.36 -9.05l2083.17 0c1.47,3.01 2.92,6.03 4.36,9.05l-2091.89 0c1.44,-3.02 2.9,-6.04 4.36,-9.05zm4.5 -9.04l2074.17 0c1.51,3.01 3.02,6.02 4.5,9.04l-2083.17 0c1.48,-3.02 3,-6.03 4.5,-9.04zm4.5 -9.05l2065.18 0c1.53,3 2.99,6.03 4.49,9.05l-2074.17 0c1.5,-3.02 2.97,-6.05 4.5,-9.05zm4.69 -9.05l2055.79 0c1.57,3.02 3.16,6.02 4.7,9.05l-2065.18 0c1.54,-3.03 3.12,-6.03 4.69,-9.05zm4.78 -9.04l2046.24 0c1.6,3.01 3.2,6.02 4.77,9.04l-2055.79 0c1.57,-3.02 3.17,-6.03 4.78,-9.04zm4.77 -9.05l2036.69 0c1.63,2.99 3.18,6.04 4.78,9.05l-2046.24 0c1.6,-3.01 3.14,-6.06 4.77,-9.05zm5.05 -9.05l2026.59 0c1.67,3.02 3.4,6.01 5.05,9.05l-2036.69 0c1.65,-3.04 3.38,-6.03 5.05,-9.05zm5.06 -9.05l2016.47 0c1.7,3.01 3.38,6.03 5.06,9.05l-2026.59 0c1.68,-3.02 3.36,-6.04 5.06,-9.05zm5.14 -9.04l2006.19 0c1.73,3 3.43,6.03 5.14,9.04l-2016.47 0c1.71,-3.01 3.41,-6.04 5.14,-9.04zm5.35 -9.05l1995.49 0c1.78,3.01 3.59,6.01 5.35,9.05l-2006.19 0c1.76,-3.04 3.57,-6.04 5.35,-9.05zm5.35 -9.05l1984.79 0c1.81,3 3.57,6.03 5.35,9.05l-1995.49 0c1.78,-3.02 3.54,-6.05 5.35,-9.05zm5.54 -9.05l1973.72 0c1.85,3.01 3.7,6.02 5.53,9.05l-1984.79 0c1.83,-3.03 3.68,-6.04 5.54,-9.05zm5.64 -9.04l1962.43 0c1.89,3.01 3.78,6.01 5.65,9.04l-1973.72 0c1.86,-3.03 3.75,-6.03 5.64,-9.04zm5.66 -9.05l1951.12 0c1.92,2.99 3.76,6.04 5.65,9.05l-1962.43 0c1.9,-3.01 3.74,-6.06 5.66,-9.05zm5.95 -9.05l1939.21 0c1.98,3.02 4.01,6.01 5.96,9.05l-1951.12 0c1.95,-3.04 3.97,-6.03 5.95,-9.05zm5.96 -9.05l1927.3 0c2,3 3.97,6.03 5.95,9.05l-1939.21 0c1.98,-3.02 3.95,-6.05 5.96,-9.05zm6.09 -9.04l1915.11 0c2.05,3 4.07,6.02 6.1,9.04l-1927.3 0c2.02,-3.02 4.04,-6.04 6.09,-9.04zm6.27 -9.05l1902.57 0c2.1,3.01 4.21,6.01 6.27,9.05l-1915.11 0c2.06,-3.04 4.17,-6.04 6.27,-9.05zm6.27 -9.05l1890.03 0c2.12,2.99 4.18,6.04 6.27,9.05l-1902.57 0c2.09,-3.01 4.15,-6.06 6.27,-9.05zm6.57 -9.04l1876.9 0c2.18,3.01 4.4,6 6.56,9.04l-1890.03 0c2.16,-3.04 4.38,-6.03 6.57,-9.04zm6.6 -9.05l1863.7 0c2.21,3 4.4,6.02 6.6,9.05l-1876.9 0c2.19,-3.03 4.38,-6.05 6.6,-9.05zm6.74 -9.05l1850.22 0c2.26,3 4.5,6.02 6.74,9.05l-1863.7 0c2.23,-3.03 4.47,-6.05 6.74,-9.05zm6.93 -9.05l1836.35 0c2.32,3.01 4.65,6.02 6.94,9.05l-1850.22 0c2.29,-3.03 4.61,-6.04 6.93,-9.05zm6.94 -9.05l1822.47 0c2.35,2.99 4.62,6.04 6.94,9.05l-1836.35 0c2.32,-3.01 4.59,-6.06 6.94,-9.05zm7.28 -9.04l1807.92 0c2.42,3.02 4.88,6 7.27,9.04l-1822.47 0c2.39,-3.04 4.86,-6.02 7.28,-9.04zm7.28 -9.05l1793.35 0c2.45,3 4.86,6.03 7.29,9.05l-1807.92 0c2.42,-3.02 4.83,-6.05 7.28,-9.05zm7.5 -9.05l1778.35 0c2.51,3.01 5.01,6.02 7.5,9.05l-1793.35 0c2.49,-3.03 4.99,-6.04 7.5,-9.05zm7.65 -9.04l1763.05 0c2.56,3 5.12,6.01 7.65,9.04l-1778.35 0c2.54,-3.03 5.09,-6.04 7.65,-9.04zm7.74 -9.05l1747.57 0c2.6,2.99 5.16,6.02 7.74,9.05l-1763.05 0c2.58,-3.03 5.14,-6.06 7.74,-9.05zm8.03 -9.05l1731.51 0c2.68,3.01 5.38,6.01 8.03,9.05l-1747.57 0c2.65,-3.04 5.35,-6.04 8.03,-9.05zm8.03 -9.05l1715.45 0c2.71,2.99 5.35,6.04 8.03,9.05l-1731.51 0c2.68,-3.01 5.32,-6.06 8.03,-9.05zm8.4 -9.04l1698.65 0c2.8,3.01 5.64,6 8.4,9.04l-1715.45 0c2.76,-3.04 5.6,-6.03 8.4,-9.04zm8.42 -9.05l1681.81 0c2.84,2.99 5.62,6.03 8.42,9.05l-1698.65 0c2.8,-3.02 5.58,-6.06 8.42,-9.05zm8.7 -9.05l1664.41 0c2.91,3.01 5.83,6.01 8.7,9.05l-1681.81 0c2.87,-3.04 5.79,-6.04 8.7,-9.05zm8.83 -9.04l1646.75 0c2.96,2.99 5.9,6.01 8.83,9.04l-1664.41 0c2.93,-3.03 5.87,-6.05 8.83,-9.04zm9.05 -9.05l1628.65 0c3.03,3 6.05,6.01 9.05,9.05l-1646.75 0c3,-3.04 6.02,-6.05 9.05,-9.05zm9.27 -9.05l1610.11 0c3.11,3 6.2,6.01 9.27,9.05l-1628.65 0c3.07,-3.04 6.16,-6.05 9.27,-9.05zm9.42 -9.05l1591.27 0c3.16,3 6.29,6.02 9.42,9.05l-1610.11 0c3.13,-3.03 6.26,-6.05 9.42,-9.05zm9.72 -9.04l1571.83 0c3.25,3 6.5,6 9.72,9.04l-1591.27 0c3.22,-3.04 6.47,-6.04 9.72,-9.04zm9.84 -9.05l1552.15 0c3.31,2.99 6.57,6.02 9.84,9.05l-1571.83 0c3.27,-3.03 6.53,-6.06 9.84,-9.05zm10.2 -9.05l1531.75 0c3.41,3.01 6.83,6 10.2,9.05l-1552.15 0c3.37,-3.05 6.79,-6.04 10.2,-9.05zm10.3 -9.05l1511.15 0c3.46,2.99 6.88,6.02 10.3,9.05l-1531.75 0c3.42,-3.03 6.84,-6.06 10.3,-9.05zm10.7 -9.04l1489.75 0c3.57,3 7.16,5.99 10.7,9.04l-1511.15 0c3.54,-3.05 7.12,-6.04 10.7,-9.04zm10.82 -9.05l1468.11 0c3.63,2.98 7.22,6.02 10.82,9.05l-1489.75 0c3.6,-3.03 7.19,-6.07 10.82,-9.05zm11.24 -9.05l1445.63 0c3.76,3 7.52,6 11.24,9.05l-1468.11 0c3.72,-3.05 7.48,-6.05 11.24,-9.05zm11.4 -9.05l1422.82 0c3.83,2.99 7.62,6.02 11.41,9.05l-1445.63 0c3.79,-3.03 7.58,-6.06 11.4,-9.05zm11.8 -9.04l1399.23 0c3.94,3 7.89,6 11.79,9.04l-1422.82 0c3.91,-3.04 7.85,-6.04 11.8,-9.04zm12.06 -9.05l1375.11 0c4.04,2.99 8.06,6.01 12.06,9.05l-1399.23 0c4,-3.04 8.02,-6.06 12.06,-9.05zm12.41 -9.05l1350.29 0c4.16,2.99 8.29,6.01 12.41,9.05l-1375.11 0c4.12,-3.04 8.25,-6.06 12.41,-9.05zm12.8 -9.05l1324.69 0c4.29,3 8.56,6 12.8,9.05l-1350.29 0c4.24,-3.05 8.51,-6.05 12.8,-9.05zm13.05 -9.04l1298.59 0c4.39,2.97 8.71,6.01 13.05,9.04l-1324.69 0c4.34,-3.03 8.66,-6.07 13.05,-9.04zm13.64 -9.05l1271.3 0c4.56,3 9.14,5.98 13.65,9.05l-1298.59 0c4.51,-3.07 9.08,-6.05 13.64,-9.05zm13.88 -9.05l1243.55 0c4.66,2.97 9.26,6.02 13.87,9.05l-1271.3 0c4.62,-3.03 9.22,-6.08 13.88,-9.05zm14.49 -9.05l1214.56 0c4.85,3 9.7,5.99 14.5,9.05l-1243.55 0c4.8,-3.06 9.65,-6.05 14.49,-9.05zm14.92 -9.04l1184.72 0c5,2.98 9.98,5.99 14.92,9.04l-1214.56 0c4.95,-3.05 9.93,-6.06 14.92,-9.04zm15.31 -9.05l1154.11 0c5.14,2.96 10.22,6.01 15.3,9.05l-1184.72 0c5.09,-3.04 10.17,-6.09 15.31,-9.05zm16.14 -9.05l1121.82 0c5.4,3 10.81,5.97 16.15,9.05l-1154.11 0c5.34,-3.08 10.75,-6.05 16.14,-9.05zm16.62 -9.04l1088.59 0c5.57,2.96 11.1,5.99 16.61,9.04l-1121.82 0c5.52,-3.05 11.05,-6.08 16.62,-9.04zm17.15 -9.05l1054.29 0c5.76,2.95 11.45,6 17.15,9.05l-1088.59 0c5.7,-3.05 11.39,-6.1 17.15,-9.05zm18.21 -9.05l1017.87 0c6.09,2.99 12.18,5.96 18.21,9.05l-1054.29 0c6.03,-3.09 12.12,-6.06 18.21,-9.05zm18.94 -9.05l979.99 0c6.34,2.97 12.66,5.97 18.94,9.05l-1017.87 0c6.28,-3.08 12.59,-6.08 18.94,-9.05zm19.77 -9.04l940.45 0c6.62,2.95 13.21,5.97 19.77,9.04l-979.99 0c6.56,-3.07 13.14,-6.09 19.77,-9.04zm20.76 -9.05l898.92 0c6.97,2.94 13.87,5.98 20.77,9.05l-940.45 0c6.89,-3.07 13.8,-6.11 20.76,-9.05zm22.15 -9.05l854.62 0c7.42,2.95 14.81,5.95 22.15,9.05l-898.92 0c7.34,-3.1 14.74,-6.1 22.15,-9.05zm23.61 -9.05l807.41 0c7.91,2.94 15.78,5.95 23.6,9.05l-854.62 0c7.83,-3.1 15.7,-6.11 23.61,-9.05zm25.24 -9.04l756.92 0c8.46,2.92 16.88,5.93 25.25,9.04l-807.41 0c8.36,-3.11 16.79,-6.12 25.24,-9.04zm27.27 -9.05l702.39 0c9.14,2.9 18.22,5.92 27.26,9.05l-756.92 0c9.04,-3.13 18.13,-6.15 27.27,-9.05zm29.8 -9.05l642.79 0c9.99,2.88 19.92,5.91 29.8,9.05l-702.39 0c9.88,-3.14 19.81,-6.17 29.8,-9.05zm33.1 -9.04l576.58 -0.01c11.11,2.85 22.13,5.89 33.11,9.05l-642.79 0c10.97,-3.16 22,-6.2 33.1,-9.04zm38.33 -9.05l499.93 0c12.85,2.82 25.64,5.79 38.32,9.04l-576.58 0.01c12.68,-3.25 25.48,-6.23 38.33,-9.05zm44.96 -9.05l410 0c15.11,2.7 30.07,5.77 44.97,9.05l-499.93 0c14.89,-3.28 29.86,-6.35 44.96,-9.05zm59.78 -9.05l290.44 0c20.09,2.52 40.03,5.52 59.78,9.05l-410 0c19.76,-3.53 39.69,-6.53 59.78,-9.05zm290.44 0l-290.44 0c47.57,-5.95 96.03,-9.04 145.22,-9.04 49.19,0 97.65,3.09 145.22,9.04z"/>
   <path class="fil1" d="M1419.59 2536.7c-354.47,0 -638.22,-191.58 -638.22,-191.58l-435.44 142.08 141.29 -421.57c0,0 -225.68,-312.43 -225.68,-686.99 0,-639.58 518.47,-1158.05 1158.05,-1158.05 639.58,0 1158.07,518.47 1158.07,1158.05 0,639.58 -518.49,1158.06 -1158.07,1158.06zm0 -2536.7c-761.4,0 -1378.63,617.24 -1378.63,1378.64 0,377.89 200.06,715.66 200.06,715.66l-241.02 734.14 755.41 -241.41c0,0 280.43,170.25 664.18,170.25 761.41,0 1378.65,-617.24 1378.65,-1378.64 0,-761.4 -617.24,-1378.64 -1378.65,-1378.64z"/>
   <path class="fil1" d="M894.61 778.44c0,0 37.25,-23.61 56.67,-23.61 19.41,0 108.6,0 108.6,0 0,0 29.13,5.07 42.5,35.42 13.38,30.34 104.95,245.49 111.76,262.09 6.81,16.59 24.59,57.66 -3.93,94.44 -28.52,36.79 -88.15,105.46 -88.15,105.46 0,0 -23.61,21.26 -3.15,55.11 20.46,33.83 92.42,145.47 186.54,229.82 94.11,84.34 209.36,146.38 266.81,165.27 57.45,18.89 70.04,-6.29 92.07,-34.62 22.05,-28.34 90.53,-114.91 90.53,-114.91 0,0 23.62,-34.63 70.04,-13.38 46.45,21.24 272.31,130.65 272.31,130.65 0,0 27.54,4.73 29.12,35.42 1.57,30.69 20.49,122.54 -61.38,210.91 -81.87,88.38 -255.98,129.27 -338.41,106.23 -82.45,-23.05 -355,-94.36 -532.76,-260.12 -177.76,-165.77 -321.71,-340.26 -380.6,-468.94 -58.89,-128.68 -55.62,-205.02 -52.35,-241.01 3.27,-35.99 22.18,-202.75 133.78,-274.23z"/>
  </g>
 </g>
</svg>
