<?xml version="1.0" encoding="UTF-8"?>
<!DOCTYPE svg PUBLIC "-//W3C//DTD SVG 1.1//EN" "http://www.w3.org/Graphics/SVG/1.1/DTD/svg11.dtd">
<!-- Creator: CorelDRAW -->
<svg xmlns="http://www.w3.org/2000/svg" xml:space="preserve" width="93.5216mm" height="38.2359mm" version="1.1" style="shape-rendering:geometricPrecision; text-rendering:geometricPrecision; image-rendering:optimizeQuality; fill-rule:evenodd; clip-rule:evenodd"
viewBox="0 0 8850.26 3618.39"
 xmlns:xlink="http://www.w3.org/1999/xlink"
 xmlns:xodm="http://www.corel.com/coreldraw/odm/2003">
 <defs>
  <style type="text/css">
   <![CDATA[
    .str0 {stroke:#F87482;stroke-width:7.21;stroke-miterlimit:22.9256}
    .str1 {stroke:#FEAC96;stroke-width:7.21;stroke-miterlimit:22.9256}
    .fil27 {fill:none}
    .fil36 {fill:#EE3C3D}
    .fil35 {fill:#F8C177}
    .fil34 {fill:#3B2D2D}
    .fil25 {fill:black}
    .fil30 {fill:black}
    .fil23 {fill:#1D3283}
    .fil28 {fill:#1D3283}
    .fil24 {fill:#1F7EC2}
    .fil29 {fill:#1F7EC2}
    .fil31 {fill:#2E2E2E}
    .fil11 {fill:#4B0F0F}
    .fil6 {fill:#4B0F0F}
    .fil18 {fill:#56361D}
    .fil32 {fill:#575757}
    .fil22 {fill:#5C1E13}
    .fil5 {fill:#5C1E13}
    .fil4 {fill:#5D1E15}
    .fil0 {fill:#5D1E15}
    .fil13 {fill:#A16737}
    .fil16 {fill:#A16737}
    .fil2 {fill:#B62A2B}
    .fil1 {fill:#CE4646}
    .fil12 {fill:#DFA06B}
    .fil21 {fill:#E99D09}
    .fil15 {fill:#F58D74}
    .fil3 {fill:#F58D74}
    .fil9 {fill:#F87482}
    .fil14 {fill:#FBCB9D}
    .fil17 {fill:#FBCB9D}
    .fil8 {fill:#FEAC96}
    .fil33 {fill:#FEAC96}
    .fil10 {fill:#FEC6C7}
    .fil20 {fill:#FEF568}
    .fil19 {fill:#FFD10C}
    .fil26 {fill:white}
    .fil7 {fill:white}
    .fil37 {fill:#F5D97D;fill-rule:nonzero}
   ]]>
  </style>
     <clipPath id="id0">
      <path d="M7404.53 512.44c-33.52,-17.35 -48.04,-30.24 -81.56,-47.59 -4.89,-11.08 -14.67,-80.41 12.37,-157.02 30.71,-87.03 113.49,-85.73 156.85,-36.51 71.56,81.22 -26.57,235.54 -87.66,241.12z"/>
     </clipPath>
     <clipPath id="id1">
      <path d="M7572.74 548.6c43.11,2.49 71.39,23.08 92.94,51.89 61.96,-24.11 167.83,-200.86 72.03,-258.56 -67.61,-40.72 -219.1,39.61 -164.96,206.67z"/>
     </clipPath>
 </defs>
 <g id="Capa_x0020_1">
  <metadata id="CorelCorpID_0Corel-Layer"/>
  <g id="_1831482418528">
   <g>
    <path class="fil0" d="M8266.4 2651.5c81.2,2.63 139.81,-40.36 179.73,-109.29 62.15,-107.3 73.37,-264.75 71.7,-385.81l-1.79 -129.59 48.17 120.32c56.43,140.98 74.17,314.35 22.03,459.26 -54.46,151.35 -173.99,239.26 -336.5,243.17l-27.51 0.65 3.03 -27.35c5.52,-49.98 10.93,-99.97 16.45,-149.96l2.45 -22.12 22.24 0.72z"/>
    <path class="fil1" d="M8249.17 2825.51c330.36,-7.94 410.6,-374.97 292.71,-669.44 5.02,363.93 -112.76,524.77 -276.25,519.47 -5.13,46.41 -11.33,103.56 -16.46,149.97z"/>
    <path class="fil2" d="M8249.17 2825.51c268.86,-6.46 372.04,-250.78 337.6,-500.24 -3.36,95.29 -21.21,201.08 -93.3,317.14 -63.55,102.3 -152.62,118.27 -237.13,117.88 -2.48,22.6 -4.92,44.93 -7.16,65.22z"/>
    <path class="fil3" d="M8553.36 2186.81c-3.6,-10.32 -7.41,-20.57 -11.48,-30.74 5.02,363.93 -112.76,524.77 -276.25,519.47l-3.05 27.65 0.21 0.53c246.83,-30.31 297.17,-246.66 290.57,-516.92z"/>
    <path class="fil4 str0" d="M7250.36 792.55c187.92,-21.35 312.05,-35.21 499.98,-56.56 31.75,-14.81 133.61,-122.2 165.36,-137.01 133.21,221.5 178.74,578.65 65.74,759.32 -147.6,235.97 -618.97,170.67 -887.96,-85.85 84.62,-121.36 94.64,-265.45 29.61,-404.78 10.05,-7.38 117.21,-67.74 127.27,-75.11z"/>
    <path class="fil5" d="M8287.24 200.35c-9.82,-11.1 -18.37,-24.24 -26.96,-39.12l-11.7 -20.26 15.57 -9.57c-9.36,-10.68 -34.19,-26.15 -42.61,-31.09 -1.55,-0.91 -3.11,-1.82 -4.68,-2.71l-15.53 7.04c-34.69,15.73 -71.02,8.14 -103.6,-8.56 13.81,19.97 20.43,43.9 14.3,72.5 -2.94,13.7 -11.4,23.22 -22.15,30.22 20.3,20.2 46.7,32.17 74.01,40.28 0.01,0 0.03,0.01 0.05,0.01 0.16,-1.05 0.27,-2.03 0.36,-2.71 4.33,-36.46 27.42,-59.71 64.79,-56.47 19.48,1.69 40.07,10.38 58.16,20.44zm20.45 -90.5c8.92,14.37 9.8,29.54 3.16,42.19 12.26,19.17 25.5,33.03 51.32,38.23l10.74 2.17 5.41 9.53c5.55,9.78 11.34,20.43 14.18,31.34 4.34,16.67 0.72,33.39 -14,43.64l-2.29 1.59 -2.59 1.02c-31.25,12.39 -72.07,-13.8 -97.72,-30.01 -13.58,-8.57 -34.98,-20.32 -50.99,-21.71 -10.49,-0.92 -11.63,3.91 -12.85,14.22 -4.21,35.37 -25.53,53.9 -61.87,43.12 -38.31,-11.37 -73.77,-29.06 -100.78,-59.16 -8.23,-9.19 -16.9,-20.1 -17.29,-33.01 -0.45,-14.91 9.09,-24.83 22.18,-29.99 2.31,-0.91 8.62,-3.56 10.9,-5.61 7.26,-37.98 -34.3,-61.81 -63.16,-75.83 -12.73,-6.18 -30.5,-12.93 -41.06,-21.96 -16.05,-13.72 -14.82,-37.63 5.2,-47.15 3.36,-1.6 7.26,-2.73 11.37,-3.53l1.08 -8.94c41.73,5.03 61.63,6.36 100.98,27.19 0.38,-1.55 0.89,-3.1 1.54,-4.65 6.12,-14.52 20.57,-19.67 35.35,-18.43 20.5,1.7 48.93,14.53 67.65,23.04 55.19,25.13 95.66,37.8 123.52,82.7z"/>
    <path class="fil6" d="M7547.41 1041.22c21.42,4.21 42.83,8.42 64.25,12.63l28.61 5.63 -10.97 27.02c-7.46,18.4 -12.58,36.09 -21.87,54.13 -13.04,25.27 -35.1,52.12 -67.13,43.56 -32.18,-8.61 -37.32,-41.48 -33.88,-69.95 2.37,-19.56 8.02,-36.95 13.15,-55.76l5.9 -21.58 21.95 4.32z"/>
    <path class="fil7" d="M7542.77 1064.82c21.42,4.21 42.82,8.42 64.24,12.63 -7.72,19.04 -28.02,92.18 -60.5,83.5 -32.77,-8.76 -9.23,-76.05 -3.74,-96.13z"/>
    <path class="fil5" d="M7789.79 784.69c13.86,31.88 22.68,65.54 23.52,100.06 1.5,62.86 -24.63,119.58 -75.48,156.71 -52.79,38.55 -122.77,49.77 -186.62,42.4 -71.51,-8.25 -140.28,-39.76 -191.68,-90.42 -46.43,-45.75 -75.39,-94.69 -106.55,-151.07 -66.35,45.33 -146.04,64.86 -221.65,30.08 -91.54,-42.12 -152.22,-121.07 -129.32,-224.59 8.69,-39.27 37.16,-74.08 69.5,-96.82 47.88,-33.66 106.53,-44.9 164.19,-42.05 47.7,-3.09 95.41,-6.17 143.1,-9.26 77.42,-59.77 154.84,-119.54 232.25,-179.31l2.15 -1.66 2.46 -1.14c70.94,-32.81 141.08,-59.81 220.23,-64.06 77.98,-4.17 151.43,14.74 220.55,46.69 7.3,-79.42 14.64,-150.03 -0.34,-229.81l-9.07 -48.29 43.7 22.46c12.56,6.45 25.39,12.23 37.61,19.37 16.98,9.92 35.49,21.24 47.25,37.28 17.18,23.41 14.48,49.29 -1.68,72.4 -5.47,7.83 -15.37,21.73 -20.09,33.75l2.88 2.93c27.45,27.94 59.88,46.13 98.08,54.44l32.63 7.1c-0.1,-1.37 -0.44,-3.03 -0.63,-3.87 -7.87,-33.42 13.96,-59.36 48.78,-56.26 37.87,3.38 68.07,23.8 96.26,47.79l54.02 10.75c-109.81,51.01 -171.36,45.64 -286.46,123.82 127.87,109.37 149.57,314.57 141.53,472.5l-0.74 14.51 -13.18 6.1c-42.54,19.68 -85.08,39.37 -127.6,59.05l-13.69 6.34c9.54,126.76 0.14,265.75 -73.8,368.8 -34.19,47.67 -75.76,80.52 -121.15,108.91l3.39 -1.46 -18.67 52.12c-48.49,135.4 -81.21,277.24 -107.11,418.54 -27.37,149.44 -47.33,300.27 -67.24,450.86 39.93,280.7 79.86,561.4 119.79,842.1l1.68 11.83 -8.41 8.49c-141.56,142.89 -315.85,231.27 -515.75,162.14 -155.93,-53.92 -240.42,-165.75 -300.86,-312.05 -103.35,-250.18 -129.88,-533.72 -131.15,-802.13 -0.3,-64.1 5,-130.57 10.32,-194.45 7.24,-86.72 16.37,-173.38 26.49,-259.81 10.22,-87.24 21.48,-174.43 34.25,-261.33 9.7,-66.11 19.94,-133.31 33.72,-198.69l5.87 -27.83c-35.21,-31.56 -67.15,-68.05 -85.67,-108.71 -21.1,-46.33 -22.23,-91.59 -7.66,-139.68l12.43 -40.99 28.53 31.94c118.17,132.29 265.43,229.35 427.46,299.67 103.21,20.54 206.41,41.07 309.61,61.61 97.48,-3.52 162.8,-53.19 220.36,-127.52 137.52,-177.59 122.27,-369.55 24.34,-561.98l-3.89 -7.64c-31.04,26.69 -69.81,45.46 -107.8,57.71l-5 1.61z"/>
    <path class="fil1" d="M7525.76 339.46c-79.36,61.27 -158.71,122.53 -238.07,183.8 -50.61,3.27 -101.22,6.55 -151.83,9.82 -132.5,-7.11 -198.74,67.45 -210.36,119.97 -18.47,83.5 24.53,155.51 115.88,197.55 67.05,30.84 138.02,12.95 198.13,-28.16 -10.29,-8.8 -20.57,-17.61 -30.86,-26.41 28.65,-4.14 50.32,7.44 64.48,33.1 31.64,57.31 58.05,102.61 103.27,147.18 98.96,97.52 258.77,110.32 347.23,45.74 82.83,-60.5 102.46,-190.28 -30.94,-341.46 42.99,7.8 68.22,42.46 94.7,79.61 74.65,-24.07 122.51,-64.1 142.63,-109.33 -35.32,-22.36 -61.77,-52.99 -80.64,-90.64 13.76,-2.25 27.52,-4.5 41.28,-6.76 21.38,59.86 66.23,94.42 148.6,88.6 0.6,10.79 1.18,21.58 1.78,32.36 -26.06,-1.37 -52.12,-2.73 -78.19,-4.11 -6.97,19.49 -18.58,36.77 -34.97,51.78 102.67,201.73 116.33,402.84 -26.76,587.62 -57.11,73.76 -128.66,133.83 -241.36,136.92 -104.94,-20.89 -209.89,-41.76 -314.84,-62.65 -178.96,-77.31 -324.76,-179.76 -438.19,-306.74 -23.14,76.35 -8.73,160.17 147.82,272.27 -6.08,10.72 -12.15,21.45 -18.23,32.18 -13.87,-10.08 -27.74,-20.16 -41.61,-30.24 -40.41,191.78 -105.13,726.11 -104.27,909.21 1.4,295.74 34.58,563.67 129.34,793.07 52.4,126.85 128.47,243.86 286.47,298.5 163.79,56.64 328.25,7.73 490.82,-156.34 -40.09,-281.79 -80.17,-563.58 -120.25,-845.38 40.63,-307.31 81.66,-614.29 175.97,-877.63 -23.4,10.1 -46.8,20.19 -70.2,30.28 -5.32,-10.07 -10.63,-20.13 -15.95,-30.2 162.32,-91.49 343.71,-152.59 287.41,-592.34 8.2,1.85 16.38,3.71 24.57,5.56 3.55,12.75 7.09,25.5 10.63,38.25 42.54,-19.68 85.08,-39.37 127.6,-59.05 8.74,-171.92 -19.34,-378.86 -158.4,-472.18 87.42,-61.72 169.07,-109.2 257.74,-115.36 -24.42,-20.78 -50.7,-39.28 -82.81,-42.15 -21.41,-1.9 -26.61,12.45 -23.23,26.8 3.94,16.69 -0.55,30.62 -22.45,34.71 -67.52,12.62 -88.66,33.68 -115.45,55.72 16.91,-20.56 36.41,-41.42 77.37,-64.65 -41.24,-8.97 -78.22,-28.63 -110.12,-61.09 -2.11,26.19 -10.58,49.39 -24.09,70.19 3.89,-26.36 11.32,-52.44 11.68,-79.08 0.25,-18.36 12.63,-37.78 27.07,-58.43 25.28,-36.16 -7.27,-57.19 -38,-75.14 -11.79,-6.9 -24.31,-12.49 -36.46,-18.74 16.62,88.49 7.38,163.07 0.44,238.88 12.8,8.06 25.61,16.13 38.42,24.2 -4.31,8.03 -8.61,16.08 -12.91,24.11 -208.71,-121.98 -347.32,-75.08 -479.93,-13.75z"/>
    <path class="fil2" d="M7065.1 3147.32c50.87,88.51 123.18,164.11 241.19,204.93 163.79,56.64 328.25,7.73 490.82,-156.34 -40.09,-281.79 -80.17,-563.58 -120.25,-845.38 40.63,-307.31 81.66,-614.29 175.97,-877.63l-50.65 21.84 0 0.01c-85.25,254.63 -146.02,520.82 -175.26,801.91 -84.78,9.39 -117.6,57.37 -142.05,111.56 -136.29,18.55 -181.05,119.71 -109.36,326 -33.52,98.46 9.72,177.99 115.09,263.52 74.14,60.18 87.28,143.51 -32.7,228.21 -72.21,50.98 -193.96,36.53 -392.8,-78.63zm1089.15 -2252.93l62.64 -28.99c8.01,-157.38 -14.87,-344.05 -125.45,-446.11 53.3,154.04 75.69,312.21 62.81,475.1z"/>
    <path class="fil8" d="M7353.83 1385.76l-8.89 -1.77c-178.96,-77.31 -324.76,-179.76 -438.19,-306.74 -7.57,24.98 -11.12,50.75 -6.99,78.06l14.32 -50.15c88.61,91.64 187.75,184.77 426.45,297.84l13.31 -17.25zm-338.29 -19.17l-20.81 -15.12c-40.41,191.78 -105.13,726.11 -104.27,909.21 1.4,295.74 34.58,563.67 129.34,793.07 7.53,18.25 15.58,36.3 24.26,53.99 -41.26,-121.18 -81.03,-242.78 -89.1,-373.4 -13.55,-137.61 -27.11,-275.21 -40.66,-412.83 9.33,-139.76 18.66,-279.53 27.99,-419.29 24.42,-178.54 48.82,-357.08 73.24,-535.62z"/>
    <path class="fil8" d="M8296.1 279.98c6.68,-0.93 13.38,-1.65 20.14,-2.12 -24.42,-20.78 -50.7,-39.28 -82.81,-42.15 -21.41,-1.9 -26.61,12.45 -23.23,26.8l0.25 1.12c35.4,-7.03 63.18,-0.14 85.66,16.35zm-161.27 17.2c4.62,-2.92 9.55,-5.89 14.84,-8.9 -41.24,-8.97 -78.22,-28.63 -110.12,-61.09 -1.93,24.02 -9.22,45.51 -20.84,64.96l-0.06 0.26c11.67,-13.31 23.33,-26.61 34.99,-39.92 23.62,18.82 52.21,31.98 81.19,44.69zm-71.59 -161.06c0.61,-22.39 -23.72,-37.77 -47.02,-51.38 -11.79,-6.9 -24.31,-12.49 -36.46,-18.74 16.62,88.49 7.38,163.07 0.44,238.88l4.61 2.91c15.98,-57.88 41.19,-106.19 16.99,-205.8 24.65,4.44 43.5,18.53 61.45,34.12z"/>
    <path class="fil2" d="M8003.7 30.93c-59.56,0.96 -15.57,17.16 8.86,29.01 57.17,27.76 85.08,61 75.95,103.6 -2.2,10.26 -11.97,16.59 -25.38,21.87 -8.31,3.27 -11.65,6.89 4.19,24.56 19.64,21.88 47.37,39.59 89.71,52.16 23.22,6.89 28.94,-4.43 31.14,-22.9 6.81,-57.29 63.17,-33.64 100.58,-10 29.08,18.38 58.51,34.91 76.01,27.97 11.38,-7.91 2.96,-25.18 -7.35,-43.35 -40.13,-8.09 -57.44,-31.99 -76.29,-64.63 47.47,-29.18 -86.86,-91.05 -106.92,-100.17 -53.72,-24.46 -83.09,-30.94 -66.98,-1.55 10.33,18.83 41.18,29.39 84.17,35.25 -24.09,10.93 -52.53,8.15 -85.73,-9.65 -30.95,-24.71 -65.68,-41.47 -106.01,-46.33l4.05 4.17z"/>
    <path class="fil5" d="M8202.16 152.59c-0.62,-12.81 -2.93,-25.79 -9.35,-38.87 5.93,0.94 11.86,1.85 17.78,2.79 9.28,24.81 28.38,73.19 -19.93,70.7 -35.22,-1.81 -47.17,15 -44.88,45.06 -3.29,-23.95 -6.21,-57.42 29.29,-58.04 24.96,-0.44 27.75,-8.03 27.08,-21.65z"/>
    <path class="fil0" d="M7590.97 1228.94c27.52,-18.27 59.26,-26.33 94.32,-27.72 83.35,-3.29 136.56,54.1 158.8,129.52l3.5 11.87 -7.63 9.75c-43.9,56.17 -105.54,81.58 -175.81,85.5l-17.51 0.98c-3.03,46.74 9.64,98.71 20.79,138.38l0.53 1.89 0.22 1.96c5.74,51.8 3.26,111.35 -23.85,157.4 -21.46,36.46 -55.94,59.38 -98.26,62.24 -42.31,2.86 -83.51,-14.85 -116.35,-40.48 -41,-32.01 -71.08,-77.17 -90.48,-125.05 -33.36,-82.32 3.69,-220.51 40.5,-299.09 19.37,-41.35 48.38,-89.19 86.07,-116.18 39.78,-28.48 83.28,-28.37 120.49,4.87l4.66 4.15z"/>
    <path class="fil9" d="M7662.81 1413.84c7.57,-17.88 15.14,-35.75 22.71,-53.63 17.58,-21.23 41.53,-35.27 69.66,-44.58 -6.03,-8.55 -12.07,-17.09 -18.1,-25.63 -52.06,20.27 -79.97,47.73 -97.02,80.25 -29.6,56.45 -18.6,132.19 4.22,213.46 28.19,254.22 -200.13,246.28 -282.74,42.42 -51.85,-127.95 88.91,-490.48 208.74,-383.43 -34.3,44.91 -41.56,75.98 -40.74,102.9 32.45,-49.47 53.2,-116.27 156.69,-120.36 72.11,-2.86 115.75,47.78 134.78,112.28 -37.47,47.94 -90.77,72.55 -158.21,76.3z"/>
    <path class="fil10" d="M7483.49 1764.85c-46.99,-20.76 -93.26,-67.9 -121.94,-138.7 -51.32,-126.64 86.02,-482.95 205.01,-386.52l-0.83 9.2c-1.76,2.4 -3.44,4.77 -5.03,7.11 -47.29,-37.63 -157.5,80.24 -175.47,222.37 -11.66,92.18 -18.85,173 98.27,286.55z"/>
    <path class="fil10" d="M7711.99 1226.62c-84.93,20.07 -158.89,91.23 -191.54,170.43 -32.42,78.68 -14.48,145.42 -5.84,189.71 4.68,23.98 10.19,49.99 -9.51,68.51 -4.84,4.55 -14.88,8.2 -20.99,0.4 9.24,1.9 19.7,-6.73 17.01,-18.28 -18.43,-78.97 -20.6,-137.32 -12.26,-197.17 -1.06,1.96 -2.1,3.92 -3.14,5.9 7.7,-42.84 21.67,-83.25 44.81,-120.1 -0.92,6.84 -1.17,13.33 -0.97,19.6 32.45,-49.47 53.2,-116.27 156.69,-120.36 9.03,-0.36 17.61,0.12 25.75,1.36z"/>
    <path class="fil11" d="M7848.57 1151.66c9.74,-2.95 11.23,-18.86 10.27,-27.13 -3.4,-29.21 -5.9,-53.94 1.83,-72.95 15.48,-38.18 52.11,-48.92 65.12,4.27 7.61,31.09 -2.21,76.22 -22.33,126.16 -12.89,32.01 -38.51,49.74 -75.16,39.12 -127.42,-36.94 -49.12,-205.21 -23.66,-205.58 23.95,-0.34 28.92,21.42 23.76,45.76 -4.43,20.92 -17.63,44.15 -20.12,63.33 -2.42,18.72 7.79,36.86 40.29,27.03z"/>
    <path class="fil0" d="M7480.07 3546.06l-53.41 9.22 0.82 -3.5 -11.89 -1.81c-12.13,-1.85 -23.9,-5.53 -34.89,-10.99l-29.06 -14.43 22.26 -23.61c25.37,-26.9 47.1,-58.39 56.64,-94.53l3.65 -13.83 182.73 -44.62 9.41 13.62c15.18,21.96 36.53,37.57 60.36,49.1l34.83 16.85 -30.54 23.78c-14.11,10.98 -28.32,19.52 -43.04,25.98 5.96,14.58 11.93,29.17 17.9,43.76l9.54 23.33 -23.74 8.44c-47.44,16.85 -94.19,35.53 -145.57,27.6l-12.56 -1.94 -5.48 -11.46c-3.33,-6.97 -5.96,-13.96 -7.95,-20.96z"/>
    <path class="fil0" d="M8230.29 867.72l-0.22 -3.46c-3.5,-55.91 -7,-111.83 -10.49,-167.75l-1.54 -24.57 24.6 -0.97c53.48,-2.1 100.69,0.69 151.83,18.4 71.73,24.83 134.71,73.62 188.82,125.71l0.8 0.78 0.73 0.85c130.58,151.49 133.4,324.54 80.26,507.91l-0.55 1.91 -0.86 1.79c-72.75,151.89 -136.57,307.34 -191.39,466.58 -55.34,160.73 -101.31,324.26 -141.43,489.42 -14.34,108.11 -24.29,216.78 -34.66,325.32 -9.84,103.07 -19.77,206.71 -35.67,309.03 -21.46,138.2 -61.87,342.6 -186.03,427.08 -42.95,29.21 -86.57,43.74 -139.12,42.37 -69.95,-1.84 -144.65,-32.01 -206.74,-62.19l-30.34 -14.74 23.83 -23.88c19.13,-19.16 36.61,-39.7 56.1,-58.59l12.24 -11.86 7.95 3.97c-43.52,-34.01 -77.85,-78.76 -96.95,-137.89l-0.44 -1.38 -0.27 -1.43c-9.56,-49.14 -13.92,-100.45 -16.67,-150.4 -3.35,-60.44 -4.15,-121.16 -4.17,-181.68 -0.03,-131.74 4.05,-263.46 4.31,-395.2l0.01 -0.97 0.09 -0.98c11.77,-140.51 30.72,-279.82 57.35,-418.31 32.04,-166.65 74.76,-330.97 125.3,-492.95l2.51 -8.05 6.99 -4.71c161.4,-108.97 215.22,-260.56 192.32,-451.46l-1.45 -12.09 8.88 -8.32c47.56,-44.57 99.1,-72.4 154.1,-87.28z"/>
    <path class="fil12" d="M8254.08 862.76c85.04,-12.64 140.82,2.64 188.85,25.32 -158.97,-28.32 -266,5.48 -350.29,84.46 25.47,212.35 -42.85,366.31 -202.74,474.26 -111.92,358.65 -159.91,646.85 -181.65,906.1 -0.51,256.99 -16.34,555.84 16.1,722.64 37.08,114.78 138.34,176.14 276.57,206.75 -50.58,10.24 -99.11,17.01 -205.95,-36.29 -21.6,20.93 -35.65,38.09 -55.81,58.3 167.94,81.61 249.72,70.62 321.81,21.57 198.16,-134.81 188.57,-612.22 246.22,-1045.98 84.17,-346.66 183.85,-646.84 334.8,-961.95 48.46,-167.21 53.44,-336.07 -75.38,-485.51 -139.31,-134.1 -233.03,-140.95 -323.02,-137.41 3.5,55.91 7,111.83 10.5,167.75z"/>
    <path class="fil13 str1" d="M7772.47 3269.01c-10.91,11.67 -20.97,22.91 -33.33,35.29 167.94,81.61 249.72,70.62 321.81,21.57 198.16,-134.81 188.57,-612.22 246.22,-1045.98 84.17,-346.66 183.85,-646.84 334.8,-961.95 48.46,-167.21 53.44,-336.07 -75.38,-485.51 -139.31,-134.1 -233.03,-140.95 -323.02,-137.41l4.22 67.47c153.22,-15.52 267.89,45.96 318.35,300.67 44.15,222.8 -38.52,373.88 -100.63,543.65 -121.36,353.82 -199.61,529.06 -237.67,768.28 -18.89,118.68 -1.72,262.44 -26.72,433.17 -18.04,123.17 -37.47,247.16 -74.85,365.91 -48.4,153.69 -135.49,159.53 -209.99,139.72 -48.54,-12.91 -96.25,-28.6 -143.8,-44.88z"/>
    <path class="fil14" d="M8314.48 878.84l123.89 8.46 4.56 0.79 -1.19 -0.56 41.34 2.83c-76.33,20.35 -154.34,46.41 -151.96,97.44 5.51,118.12 1.42,197.12 -61.1,246.3 -47.87,37.66 -68.52,82.79 -94.32,155.78 -27.26,77.11 -45.54,148.21 -72.06,235.36 -41.85,137.52 -112.47,250.44 -41.18,408.84 48.73,108.29 21.07,193.54 -2.79,277.05 -16.38,57.3 -9.77,126.29 -60.32,151.38 -88.43,43.86 -190.18,19.45 -291.95,-5.07 0.46,-35.31 0.8,-70.29 0.87,-104.54 21.74,-259.25 69.73,-547.44 181.65,-906.1 159.89,-107.95 228.21,-261.91 202.74,-474.26 59.31,-55.56 129.86,-88.77 221.84,-93.71z"/>
    <g>
     <path class="fil0" d="M8540.4 1339.85c26.52,-20.4 58.29,-32 92.77,-32.68 32.74,-0.65 69.57,9.07 95.43,29.77 28.29,22.66 43.63,56.58 44.45,92.64 0.59,25.9 -6.18,50.81 -18.12,73.2 25.72,7.08 48.92,21.01 66.57,42.73 23.27,28.65 32.65,66.14 27.28,102.52 -5.76,39.1 -27.71,72.94 -60.25,95.17 -31.35,21.42 -68.59,29.92 -106.01,30.42 -31.58,84.02 -89.48,154.7 -182.89,169.88 -75.83,12.31 -155.55,-15.96 -216.3,-60.6 -73.64,-54.09 -111.45,-142.49 -104.98,-233.01 5.38,-75.32 40.65,-146.24 100.06,-191.7l-3.32 -2.36 2.98 -15.25c14.69,-75.02 43.08,-142.64 127.98,-155.42 54.94,-8.27 101.69,14.45 134.35,54.69z"/>
     <path class="fil1" d="M8409.63 1308.94c61.27,-9.22 103.44,27.67 126.72,67.2 58.69,-64.12 141.7,-48.87 177.21,-20.42 44.33,35.51 50.4,107.74 -0.65,165.51 163.1,1.04 157.32,252.2 -64.61,226.52 5.21,2.14 10.43,4.27 15.65,6.4 -72.9,212.82 -253.46,192.31 -366.38,109.36 -141.51,-103.95 -120.29,-326.31 23.61,-404.48 -6.5,-4.62 -13.01,-9.22 -19.51,-13.84 11.54,-58.9 31.7,-124.77 107.96,-136.25z"/>
     <path class="fil0" d="M8784.16 1605.96c14.12,38.19 -21.26,76.39 -54.94,88.84 -33.67,12.45 -85.4,6.47 -99.53,-31.72 -6.7,-18.14 -1.45,-38.51 8.32,-54.46 10.62,-17.35 27.14,-31.03 46.23,-38.08 19.06,-7.05 40.29,-7.35 59.51,-0.68 17.4,6.05 33.85,18.33 40.42,36.1z"/>
     <path class="fil8" d="M8761.6 1614.29c-6.83,-18.49 -38.83,-32.36 -69.03,-21.2 -30.2,11.17 -47.16,43.14 -40.32,61.63 6.84,18.49 38.43,28.67 68.63,17.51 30.19,-11.17 47.56,-39.45 40.72,-57.94z"/>
     <path class="fil15" d="M8650.92 1648.92c0.23,2.04 0.66,3.99 1.33,5.81 6.84,18.49 38.43,28.67 68.63,17.51 18.07,-6.69 31.55,-19.5 37.99,-32.68 -0.24,-1.57 -0.62,-3.09 -1.16,-4.55 -6.84,-18.49 -38.84,-32.36 -69.04,-21.21 -18.08,6.69 -31.43,20.86 -37.75,35.12z"/>
     <path class="fil0" d="M8705.14 1472.34c-8.67,43.04 -40.92,74.21 -85.42,76.54 -36.39,1.9 -75.76,-17.89 -84.48,-55.55 -11.17,-48.22 18.05,-95.78 61.39,-116.14 31.58,-14.84 66.99,-14.58 90.83,13.48 18.67,21.99 23.24,54.05 17.68,81.68z"/>
     <path class="fil8" d="M8681.56 1467.6c-15.58,77.38 -111.71,68.53 -122.88,20.31 -9.03,-38.99 17.34,-74.46 48.18,-88.95 57.36,-26.95 83.8,23.48 74.7,68.64z"/>
     <path class="fil15" d="M8681.56 1467.6c-9.79,48.63 -51.39,63.2 -83.73,55.34 -6.01,-14.17 -8.3,-29.82 -6.92,-44.24 5.79,-60.18 57.79,-60.24 92.28,-33.34 0.4,7.32 -0.13,14.85 -1.63,22.24z"/>
     <path class="fil0" d="M8404.27 1348.62c38.75,-12.53 75.44,24.42 86.49,58.59 11.16,34.5 1.91,83.42 -36.65,95.89 -19.32,6.25 -40.6,-1.91 -56.39,-13.15 -16.92,-12.05 -30.91,-29.71 -37.33,-49.58 -11.92,-36.89 6.23,-79.57 43.89,-91.75z"/>
     <path class="fil8" d="M8411.67 1371.51c-18.76,6.06 -38.31,30.82 -28.41,61.45 9.91,30.63 44.69,53.31 63.44,47.24 18.76,-6.06 31.07,-34.97 21.16,-65.6 -9.9,-30.63 -37.44,-49.17 -56.19,-43.1z"/>
     <path class="fil15" d="M8398.54 1458.65c14.75,16.29 35.26,25.74 48.17,21.56 18.76,-6.06 31.07,-34.97 21.16,-65.6 -0.99,-3.09 -2.18,-6.06 -3.5,-8.89 -10.37,-5.94 -21.61,-7.92 -31.05,-4.83 -19.53,6.4 -40.42,29.54 -34.78,57.75z"/>
     <path class="fil0" d="M8589.45 1657.98c16.1,43.52 13.89,90.51 -6.34,132.27 -18.04,37.24 -49.82,68.37 -88.9,82.82 -41.27,15.25 -91.09,8.49 -130.79,-8.46 -44.76,-19.12 -83.45,-53.48 -100.6,-99.87 -16.77,-45.35 -14.41,-97.62 1.93,-142.73 14.9,-41.09 44.04,-82.19 86.43,-97.86 44.02,-16.29 97.61,0.25 136.66,22.41 43.29,24.57 84.14,64.14 101.62,111.41z"/>
     <path class="fil8" d="M8566.89 1666.31c29.77,80.51 -17.23,160.6 -81.02,184.19 -63.78,23.58 -170.73,-13.61 -200.5,-94.11 -29.77,-80.5 10.35,-186.1 74.14,-209.68 63.79,-23.59 177.62,39.09 207.38,119.6z"/>
     <path class="fil15" d="M8566.89 1666.31c29.77,80.51 -17.23,160.6 -81.02,184.19 -47.06,17.39 -117.6,1.71 -163.32,-40.03 -31.43,-99.29 42.94,-177.11 117.18,-181.26 42.03,-2.36 85.79,7.13 122.94,26.99 1.54,3.34 2.96,6.71 4.22,10.11z"/>
     <path class="fil8" d="M8716.48 1358.16c-57.56,-15.49 -113.93,-15.55 -168.62,6.66 57.58,-50.8 132.46,-35.73 165.7,-9.1 0.99,0.79 1.96,1.62 2.91,2.44zm-195.79 -4.38c-47.36,-22.63 -98.13,-52.91 -154.4,-11.35 -37.98,28.04 -42.16,63.81 -47.28,93.97 8.11,9.93 16.21,19.86 24.32,29.79 -65.85,30.54 -115.89,97.2 -141.06,220.76 -5.99,-90.37 36.17,-182.98 118.92,-227.92 -6.5,-4.62 -13.01,-9.22 -19.51,-13.84 11.54,-58.9 31.7,-124.77 107.96,-136.25 49.4,-7.43 86.38,15.11 111.06,44.84z"/>
    </g>
    <ellipse class="fil16" transform="matrix(0.285166 0.134733 -0.134733 0.285166 8152.37 1235.2)" rx="47.02" ry="60.95"/>
    <ellipse class="fil16" transform="matrix(0.285166 0.134733 -0.134733 0.285166 8064.18 1511.86)" rx="60.95" ry="64.44"/>
    <ellipse class="fil16" transform="matrix(0.285166 0.134733 -0.134733 0.285166 8037.41 1622.53)" rx="36.57" ry="38.32"/>
    <ellipse class="fil16" transform="matrix(0.540724 0.255478 -0.255478 0.540724 8074.25 1592.29)" rx="22.64" ry="26.12"/>
    <ellipse class="fil16" transform="matrix(0.270362 0.127739 -0.127739 0.270362 8003.6 1950.17)" rx="37.86" ry="71.17"/>
    <ellipse class="fil16" transform="matrix(0.270362 0.127739 -0.127739 0.270362 7999.01 2108.29)" rx="56.03" ry="34.83"/>
    <ellipse class="fil16" transform="matrix(0.270362 0.127739 -0.127739 0.270362 7993.85 2211.9)" rx="64.53" ry="84.29"/>
    <path class="fil0" d="M6910.23 1067.17c-16.84,26.02 -29.47,54.86 -27.31,86.53 4.03,59.41 58.74,116.12 100.59,153.16l10.73 9.49 -3.25 13.95c-72.55,312.63 -113.03,625.66 -106.58,946.88 5.73,284.47 34.82,625.56 179.65,876.69l14.04 24.34 -26.21 10.12c-118.27,45.62 -230.17,35.59 -341.49,-21.02l-8.14 -4.14 -3.35 -8.49c-75.83,-192.65 -151.67,-385.28 -227.5,-577.93l-1.49 -3.78 -0.17 -4.06c-12.54,-307.6 3.52,-615.78 39.7,-921.35 15.69,-132.5 41.56,-262.94 71.48,-392.86 28.85,-125.34 61.21,-249.83 89.74,-375.24l0.3 -1.32 0.44 -1.28c54.05,-154.6 145.39,-351.02 291.77,-437.98l0.52 -0.3c105.63,-59.2 218.78,-86.9 338.21,-56.83l21.87 5.51 -4.09 22.17c-4.46,24.2 -6.69,49.21 -12.14,73.27l-2.42 10.67 -9.63 5.2c-25.19,13.55 -59.38,16.13 -87.73,17.28 -8.98,0.37 -36.76,0.32 -50.81,2.21l-2 10.8 -21.8 -1.94c-40.31,-3.57 -87.65,6.34 -125.27,21.25 -26.38,10.46 -68.26,32.18 -80.49,59.6 -27.15,60.89 -25.07,127.36 18.31,179.75 53.24,64.3 146.15,82.76 225.49,81.36l12.33 -0.22 7.37 9.88c90.72,121.56 46.78,260.75 -20.32,381.77l-12.88 23.24 -21.85 -15.14c-83.57,-57.88 -158.78,-125.05 -225.64,-201.25z"/>
    <path class="fil12" d="M7135.29 502.99c3.51,-19.05 103.1,-0.97 148.82,-25.58 3.79,-16.69 10.63,-65.16 11.95,-72.31 -96.31,-24.25 -201.65,-12.17 -320.58,54.49 -124.62,74.01 -216.15,238.77 -281.35,425.23 -57.01,250.61 -128.74,494.98 -160.78,765.58 -37.36,315.62 -51.65,620.77 -39.55,917.56 75.83,192.64 151.67,385.28 227.5,577.93 96.73,49.18 201.38,66.52 321.94,20.01 -134.61,-233.38 -174.28,-547.59 -182.87,-888.23 -3.79,-275.54 21.03,-581.52 107.19,-952.8 -151.6,-134.23 -118.41,-218.98 -59.09,-296.74 74.69,89.45 155.64,161.32 241.11,220.51 71.65,-129.23 100.02,-251.27 22.07,-355.72 -230.47,4.07 -332.65,-145.92 -266.19,-294.94 26.05,-58.43 146.93,-102.36 229.84,-95z"/>
    <path class="fil14" d="M7290.96 437.95c2.38,-15.21 4.44,-29.26 5.1,-32.86 -96.31,-24.25 -201.65,-12.17 -320.58,54.49 -124.62,74.01 -216.15,238.77 -281.35,425.23 -57.01,250.61 -128.74,494.98 -160.78,765.58 -37.36,315.62 -51.65,620.77 -39.55,917.56 75.83,192.64 151.67,385.28 227.5,577.93 53.8,27.35 110.05,44.84 170.12,46.99 -54.05,-27.85 -101.36,-55.85 -124.11,-84.4 -34.83,-167.56 -69.66,-335.11 -104.48,-502.66 -22.26,-70.35 -44.51,-140.7 -66.76,-211.05 20.5,-124.87 5.39,-256.03 -21.64,-389.31 36.96,-70.12 70.66,-141.78 64.6,-232.23 0.24,-122.91 0.47,-245.81 0.71,-368.72 41.49,-240.11 90.79,-432.84 175.39,-411.54 -33.4,-59.39 -42.89,-132.61 -18.25,-218.22 20.99,-72.93 60.12,-127.04 106.8,-172.61 0.59,-1.38 1.16,-2.76 1.78,-4.14 12.2,-27.35 45.18,-51.53 85.31,-68.75l300.2 -91.28z"/>
    <path class="fil13" d="M6962.06 2985.26c-70.62,-204.61 -95.15,-448.44 -101.69,-707.58 -3.79,-275.54 21.03,-581.52 107.19,-952.8 -17.13,-15.17 -31.89,-29.71 -44.53,-43.68 -30.39,221.14 -62.02,474.77 -92.34,694.1 -7.38,193.45 0.2,371.07 -7.18,564.52 17.32,225.99 54.38,361.13 138.59,445.55l-0.03 -0.1zm92.31 -1809.7c31.02,26.36 62.78,50.65 95.2,73.09 71.65,-129.23 100.02,-251.27 22.07,-355.72 -36.14,0.63 -69.12,-2.52 -98.79,-8.86 68.7,152.77 23.3,220.77 -18.48,291.48z"/>
    <path class="fil6" d="M7123.86 865.77l-6.25 15.4c-7.47,18.4 -12.59,36.1 -21.88,54.13 -13.04,25.28 -35.1,52.13 -67.12,43.56 -32.18,-8.6 -37.33,-41.48 -33.89,-69.95 2.38,-19.55 8.02,-36.95 13.15,-55.76l4.84 -17.68c8.95,5.39 18.51,10.44 28.67,15.12 27.18,12.5 54.99,17 82.47,15.18z"/>
    <path class="fil0" d="M6285.23 941.53c-2.81,-33.34 4.64,-66.34 22.72,-95.7 17.17,-27.88 45.26,-53.6 76.67,-64.13 34.36,-11.53 71.19,-6.08 101.95,12.75 22.11,13.51 39.39,32.69 51.75,54.85 19.87,-17.81 44.14,-29.78 71.96,-32.87 36.68,-4.08 73.28,8.33 100.97,32.52 29.76,26.01 46.34,62.78 47.43,102.19 1.05,37.95 -11.95,73.87 -31.78,105.6 53.58,72.03 81.68,158.96 43.9,245.72 -30.67,70.43 -97.6,122.16 -168,149.1 -85.34,32.66 -180.13,16.63 -252.76,-37.8 -60.42,-45.28 -100.98,-113.31 -107.07,-187.88l-3.79 1.52 -11.21 -10.76c-55.13,-52.94 -96.64,-113.41 -61.45,-191.73 22.78,-50.68 67.18,-77.69 118.69,-83.39z"/>
    <path class="fil1" d="M6188.48 1034.78c25.39,-56.51 79.24,-72.03 125.07,-70.21 -22.15,-84.05 35.58,-145.6 78.73,-160.08 53.84,-18.06 117.88,15.93 138.84,90.11 89.13,-136.59 297.21,4.17 155.54,176.91 4.62,-3.23 9.23,-6.46 13.84,-9.7 139.53,176.46 24.59,317.21 -106.29,367.29 -163.99,62.75 -339.5,-75.41 -327.37,-238.72 -7.39,2.97 -14.79,5.94 -22.18,8.91 -43.3,-41.57 -87.78,-94.18 -56.16,-164.51z"/>
    <path class="fil0" d="M6485.79 874.69c31.5,30.57 40.26,74.56 18.14,113.24 -18.08,31.64 -56.02,54.04 -92.42,41 -46.59,-16.69 -70.79,-67.01 -64.45,-114.47 4.61,-34.59 23.99,-64.24 60.48,-69.09 28.59,-3.81 58.03,9.7 78.25,29.33z"/>
    <path class="fil8" d="M6469.04 891.95c56.65,54.97 -2.81,131.03 -49.42,114.33 -37.67,-13.5 -53.23,-54.87 -48.73,-88.64 8.38,-62.82 65.09,-57.76 98.14,-25.68z"/>
    <path class="fil0" d="M6218.94 1060.75c10.43,-39.37 61.36,-50.22 96.06,-41.03 35.05,9.29 71.19,43.53 60.81,82.71 -5.2,19.63 -23.58,33.11 -41.57,40.3 -19.29,7.71 -41.71,9.92 -61.9,4.57 -37.47,-9.93 -63.54,-48.29 -53.4,-86.55z"/>
    <path class="fil8" d="M6242.2 1066.92c-5.05,19.05 5.2,48.9 36.31,57.14 31.12,8.24 69.01,-8.73 74.06,-27.78 5.05,-19.06 -12.61,-45.05 -43.72,-53.3 -31.12,-8.24 -61.6,4.88 -66.65,23.94z"/>
    <path class="fil15" d="M6308.37 1125.11c21.68,-3.6 40.72,-15.73 44.19,-28.84 5.05,-19.06 -12.61,-45.05 -43.72,-53.3 -3.13,-0.83 -6.26,-1.44 -9.36,-1.85 -10.62,5.51 -18.37,13.88 -20.87,23.5 -5.19,19.89 2.97,49.97 29.75,60.5z"/>
    <path class="fil2" d="M7103.84 2812.06l-10.18 -6.95c-41.68,-28.41 -85.4,-55.31 -120.58,-91.92 -41.68,-43.35 -63.46,-92.94 -65.95,-153.38 -4.17,-101.51 61.36,-174.61 139.83,-228.97 -71,-38.78 -129.53,-94.86 -126.13,-185.78 2.34,-62.36 41.51,-107.93 94.19,-137.6 45.49,-25.63 101.12,-40.62 155.92,-49.45 -39.32,-34.14 -72.03,-78.34 -82.2,-130.26 -8.88,-45.27 1.17,-90.9 29.18,-127.57 59.42,-77.79 154.32,-58.67 220.14,-0.37 73.06,64.73 108.17,167.95 83.28,263.18 -18.22,69.68 -66.85,131.1 -130.23,165.3 12.89,15.41 14.99,35.82 4.02,56.27 -5.64,10.53 -12.71,18.69 -20.88,24.48 20.66,27.72 38.71,58.18 47.11,91.85 11.01,44.1 3.4,85.89 -18.08,125.59 -24.97,46.15 -81.74,65.33 -122.1,95.43 -7.74,5.78 -7.56,19.12 -6.87,29.15 26.49,-5.88 53.71,-3.32 79.72,12.55 24.48,14.95 26.37,47.66 7.82,67.98 33.84,8.2 65.54,23.91 87.37,51.91 27.2,34.87 31.43,79.2 21.97,121.24 -16.29,72.43 -83.43,163.04 -163.7,163.67 -45.75,0.36 -89.32,-21.53 -108.08,-64.76 -13.41,-30.93 -10.12,-63.5 4.43,-91.6z"/>
    <path class="fil0" d="M6579.3 1072.41c45.32,10.02 83.64,37.3 107.81,76.9 21.55,35.33 30.54,78.91 21.54,119.58 -9.49,42.96 -42.14,81.2 -77.88,105.41 -40.29,27.3 -90.13,41.25 -138.42,30.58 -47.21,-10.44 -89.89,-40.7 -118.98,-78.86 -26.5,-34.76 -45.28,-81.51 -35.53,-125.64 10.14,-45.83 53.04,-81.95 92.8,-102.8 44.08,-23.11 99.48,-36.05 148.68,-25.17z"/>
    <path class="fil8" d="M6574.11 1095.9c83.81,18.53 125.73,101.39 111.05,167.79 -14.68,66.4 -103.82,136.22 -187.63,117.7 -83.82,-18.53 -150.9,-109.41 -136.22,-175.81 14.68,-66.4 128.99,-128.21 212.8,-109.68z"/>
    <path class="fil15" d="M6574.11 1095.9c83.81,18.53 125.73,101.39 111.05,167.79 -10.84,48.99 -62.19,99.83 -122.04,115.69 -100.5,-27.3 -125.7,-131.96 -89.02,-196.62 20.76,-36.62 52.42,-68.29 89.22,-88.78 3.63,0.5 7.24,1.13 10.79,1.91z"/>
    <path class="fil17" d="M6395.9 803.37c-44.17,40.01 -74.71,87.38 -85.63,145.39 -11.56,-75.91 41.62,-130.73 82.01,-144.28 1.2,-0.4 2.41,-0.77 3.62,-1.12zm-109.62 162.27c-44.66,27.59 -97.6,53.88 -93.09,123.71 3.04,47.1 30.85,69.98 53.44,90.6 12.74,-1.45 25.48,-2.89 38.22,-4.33 -9.96,71.89 19.03,150.05 109.32,238.09 -79.24,-43.86 -134.31,-129.44 -127.34,-223.33 -7.39,2.97 -14.79,5.94 -22.18,8.91 -43.3,-41.57 -87.78,-94.18 -56.16,-164.51 20.47,-45.57 59.44,-64.46 97.79,-69.14z"/>
    <ellipse class="fil16" transform="matrix(0.270362 0.127739 -0.127739 0.270362 6659 1998.13)" rx="69.93" ry="97.65"/>
    <path class="fil18" d="M7007.33 2707.57l-10.17 -6.94c-41.68,-28.42 -85.4,-55.31 -120.58,-91.92 -41.69,-43.36 -63.46,-92.94 -65.95,-153.39 -4.17,-101.51 61.35,-174.61 139.83,-228.96 -71,-38.79 -129.54,-94.86 -126.13,-185.79 2.33,-62.36 41.51,-107.92 94.18,-137.6 45.5,-25.63 101.13,-40.62 155.93,-49.45 -39.33,-34.14 -72.03,-78.34 -82.21,-130.25 -8.88,-45.27 1.17,-90.9 29.18,-127.57 59.43,-77.8 154.33,-58.68 220.15,-0.37 73.06,64.73 108.17,167.94 83.28,263.18 -18.22,69.69 -66.85,131.11 -130.24,165.31 12.9,15.4 14.99,35.81 4.03,56.26 -5.64,10.53 -12.71,18.7 -20.88,24.48 20.65,27.72 38.71,58.19 47.1,91.85 11.01,44.1 3.41,85.89 -18.08,125.59 -24.96,46.15 -81.74,65.33 -122.09,95.44 -7.75,5.78 -7.56,19.12 -6.87,29.14 26.49,-5.87 53.71,-3.32 79.72,12.56 24.48,14.94 26.36,47.65 7.82,67.97 33.84,8.2 65.53,23.91 87.37,51.92 27.19,34.87 31.42,79.19 21.96,121.24 -16.28,72.42 -83.42,163.03 -163.69,163.67 -45.76,0.36 -89.32,-21.54 -108.08,-64.77 -13.42,-30.93 -10.13,-63.49 4.42,-91.6z"/>
    <path class="fil19" d="M7154.35 1868.5c7.23,-9.71 14.47,-19.43 21.7,-29.14 -27.29,-0.21 -54.59,-0.41 -81.89,-0.61 -90.98,-76.42 -100.04,-167.7 -53.64,-228.44 96.11,-125.82 310.42,53.19 261.03,242.13 -23.19,88.74 -90.41,138.5 -133.75,157.76 -27.5,-9.24 -46.34,-7.58 -70.03,7.03 58.73,1.26 97.23,18.67 79.64,51.49 -23.47,43.8 -70.76,15.68 -113.99,-20.36 5.35,33.86 21.45,62.53 86.35,59.28 47.61,60.33 78.15,124.16 35.82,202.91 -21.19,38.63 -73.49,56.38 -115.32,87.6 -18.92,14.11 -17.32,37.68 -16.04,55.96 -6.82,1.39 -13.65,2.79 -20.47,4.19 2.86,9.43 5.72,18.87 8.57,28.3 30.08,-17.42 67.15,-28.63 102.64,-6.96 13.08,7.99 9.39,23.79 2.56,31.25 -9.62,10.5 -28.34,8.28 -48.48,4.82 2.54,9.29 5.08,18.58 7.63,27.87 259.48,9.61 124.52,295.33 4.1,296.28 -84.9,0.67 -122.85,-85.73 -63.36,-147.1 19.42,-20.03 72.24,-38.36 105.49,-33.34 4.75,-13.73 6.03,-17.41 10.79,-31.14 -80.87,-18.18 -116.72,17.41 -153.01,52.46 -81.71,-55.71 -170.4,-105.42 -176.05,-226.42 -2.03,-65.55 25.32,-139.18 139.22,-214.81 18.09,3.66 33.29,5.73 50.23,-5.27 -89.15,-36.28 -179.65,-88.9 -175.76,-192.79 3.65,-97.43 112.91,-158.36 306,-172.98z"/>
    <path class="fil20" d="M7120.01 1838.94l-25.84 -0.19c-90.98,-76.42 -100.04,-167.7 -53.64,-228.44 45.76,-59.9 118.29,-50.69 176.42,-4.21 -51.91,-11.77 -91.18,-13.47 -111.57,-0.15 58.42,37.23 20.4,140.28 -48.69,119.74 12.42,53.64 37.45,84.22 63.32,113.25zm13.72 997.47c-7.64,2.2 -15.31,3.41 -22.93,3.46 -84.9,0.67 -122.85,-85.73 -63.36,-147.1 12.26,-12.65 37.82,-24.61 63.38,-30.45 -106.24,78.22 -76.49,136.04 22.91,174.09zm-104.55 -173.11c-6.28,5.66 -12.38,11.56 -18.47,17.46 -81.71,-55.71 -170.4,-105.42 -176.05,-226.42 -2.03,-65.55 25.32,-139.18 139.22,-214.81 18.09,3.66 33.29,5.73 50.23,-5.27 -89.15,-36.28 -179.65,-88.9 -175.76,-192.79 3.33,-88.85 94.51,-147.34 257,-168.04 -111.5,35.16 -186.39,88.72 -207.1,165.34 -18.09,66.94 33.2,109.97 96.92,137.75 58.85,25.66 95.48,52.89 85.39,80.63 -53.87,1.19 -101.43,34.99 -145.4,87.18 80.08,28.88 17.14,150.22 -39.41,170.54 58.62,106.67 96.46,129.32 133.43,148.43z"/>
    <path class="fil21" d="M7268.53 1663.5c-57.33,-15.37 -93.23,6.24 -106.96,64.61 -6.72,28.55 -2.27,55.49 29.61,72.56 59.71,31.95 31.64,91.61 -11.3,145.08 -26.42,32.89 -68.32,41.46 -105.97,52.43 17.84,35.42 2.08,42.67 -33.17,33.58 -10.11,71.23 149.49,164.97 54.22,264.12 -84.8,88.23 -127.55,146.31 -82.05,203.27 26.51,-2.56 60.43,-8.24 78.7,3.84 -42.9,27.13 -31.1,37.32 39.64,64.05 73.05,27.6 113.58,69.65 48.38,117.36 -96.81,70.85 -72.28,106.07 -13.09,136.45 97.13,-64.18 159.24,-269.14 -59.85,-277.25 -2.55,-9.29 -5.09,-18.58 -7.63,-27.87 20.14,3.46 38.86,5.69 48.48,-4.82 6.82,-7.46 10.51,-23.26 -2.56,-31.25 -35.49,-21.67 -72.56,-10.47 -102.64,6.96 -2.86,-9.43 -5.72,-18.87 -8.57,-28.3 6.82,-1.4 13.65,-2.8 20.47,-4.19 -1.28,-18.27 -2.88,-41.85 16.04,-55.96 41.83,-31.22 94.13,-48.97 115.32,-87.6 42.33,-78.75 11.79,-142.58 -35.82,-202.91 -64.9,3.26 -81.01,-25.42 -86.35,-59.28 43.23,36.04 90.52,64.15 113.99,20.36 17.58,-32.82 -20.91,-50.23 -79.64,-51.49 23.69,-14.61 42.53,-16.27 70.03,-7.03 43.33,-19.27 110.55,-69.03 133.75,-157.76 18.07,-69.14 0.82,-136.92 -33.02,-188.94z"/>
    <ellipse class="fil2" transform="matrix(0.270362 0.127739 -0.127739 0.270362 7680.69 944.367)" rx="133.3" ry="143.4"/>
    <ellipse class="fil2" transform="matrix(0.270362 0.127739 -0.127739 0.270362 7547.38 974.891)" rx="62.61" ry="60.58"/>
    <ellipse class="fil2" transform="matrix(0.270362 0.127739 -0.127739 0.270362 7716.21 840.917)" rx="62.61" ry="60.58"/>
    <ellipse class="fil16" transform="matrix(0.426738 0.201623 -0.201623 0.426738 6818.35 849.082)" rx="48.81" ry="55.41"/>
    <path class="fil7" d="M7089.21 888.86c-10.18,28.19 -28.38,73.72 -54.39,66.76 -28.06,-7.5 -14.85,-57.89 -7.02,-84.84 1.17,0.56 2.35,1.11 3.53,1.66 19.13,8.79 38.51,14.11 57.88,16.42z"/>
    <ellipse class="fil2" transform="matrix(0.270362 0.127739 -0.127739 0.270362 7002.71 694.171)" rx="133.3" ry="143.4"/>
    <ellipse class="fil2" transform="matrix(0.270362 0.127739 -0.127739 0.270362 7016.11 798.692)" rx="62.61" ry="60.58"/>
    <path class="fil17" d="M7525.76 339.46c-79.36,61.27 -158.71,122.53 -238.07,183.8 -50.61,3.27 -101.22,6.55 -151.83,9.82 -132.5,-7.11 -198.74,67.45 -210.36,119.97 -7.12,32.17 -5.1,62.63 5.28,90.33 -17.19,-193.37 142.13,-203.97 338.35,-180.42 80.91,-60.18 161.81,-120.35 242.72,-180.53 115.24,-79.9 248.32,-129.4 457.53,-49.1 -188.77,-96.49 -318.86,-51.58 -443.62,6.13zm-252.62 489.66c31.64,57.31 58.05,102.61 103.27,147.18 98.96,97.52 258.77,110.32 347.23,45.74 67.01,-48.93 92.64,-143.23 29.36,-257.5 54.75,221.16 -81.73,335.61 -290.91,242.98 -96.19,-42.59 -144.15,-179.49 -188.95,-178.4zm504.42 -82.61c3.28,4.49 6.55,9.07 9.84,13.67 74.65,-24.07 122.51,-64.1 142.63,-109.33 -4.72,-2.99 -9.27,-6.12 -13.68,-9.41 -56.04,65.64 -99.69,92.48 -138.79,105.06zm113.12 -193.05c21.38,59.86 66.23,94.42 148.6,88.6 0.95,-4.82 1.89,-9.63 2.84,-14.44 -75.6,7.04 -116.15,-25.64 -136.4,-81.32 -5.02,2.38 -10.03,4.78 -15.05,7.16z"/>
    <path class="fil22" d="M7393.48 533.8c-28.19,-14.59 -53.47,-33.06 -81.56,-47.59l-7.52 -3.89 -3.43 -7.75c-6.89,-15.61 -8.02,-47.13 -7.84,-63.93 0.43,-37.47 7.05,-75.46 19.52,-110.81 15.11,-42.83 46.13,-78.27 92.87,-85.14 39.37,-5.78 78.73,11.24 104.71,40.74 43.7,49.6 35.92,119.11 9.63,175.05 -19.38,41.25 -63.57,101.39 -113.15,105.91l-6.99 0.63 -6.25 -3.23z"/>
    <path class="fil7" d="M7404.53 512.44c-33.52,-17.35 -48.04,-30.24 -81.56,-47.59 -4.89,-11.08 -14.67,-80.41 12.37,-157.02 30.71,-87.03 113.49,-85.73 156.85,-36.51 71.56,81.22 -26.57,235.54 -87.66,241.12z"/>
    <g style="clip-path:url(#id0)">
     <g>
      <ellipse class="fil23" transform="matrix(0.266384 0.12586 -0.126154 0.267007 7448.05 404.982)" rx="234.44" ry="277.53"/>
      <ellipse class="fil24" transform="matrix(0.238556 0.112711 -0.112975 0.239113 7448.05 404.982)" rx="234.44" ry="277.53"/>
      <ellipse class="fil25" transform="matrix(0.304593 0.143912 -0.127739 0.270362 7450.79 398.2)" rx="89.54" ry="130.35"/>
      <circle class="fil26" transform="matrix(0.307037 0.145067 -0.145067 0.307037 7445.8 364.349)" r="66.87"/>
     </g>
    </g>
    <path class="fil27" d="M7404.53 512.44c-33.52,-17.35 -48.04,-30.24 -81.56,-47.59 -4.89,-11.08 -14.67,-80.41 12.37,-157.02 30.71,-87.03 113.49,-85.73 156.85,-36.51 71.56,81.22 -26.57,235.54 -87.66,241.12z"/>
    <path class="fil5" d="M7549.86 556.01c-23.67,-73.06 -15.65,-152.79 43.56,-206.48 21.72,-19.69 48.95,-34.02 77.82,-39.59 26.59,-5.14 55.31,-2.81 78.88,11.38 62.81,37.82 57.25,112.27 33.01,171.58 -18.43,45.09 -62.03,111.83 -108.71,130.01l-17.03 6.63 -10.96 -14.64c-19.34,-25.87 -42.05,-40.38 -75.06,-42.29l-16.42 -0.95 -5.07 -15.65z"/>
    <path class="fil7" d="M7572.74 548.6c43.11,2.49 71.39,23.08 92.94,51.89 61.96,-24.11 167.83,-200.86 72.03,-258.56 -67.61,-40.72 -219.1,39.61 -164.96,206.67z"/>
    <g style="clip-path:url(#id1)">
     <g>
      <ellipse class="fil28" transform="matrix(0.277762 0.131235 -0.131541 0.27841 7688.2 494.948)" rx="234.44" ry="277.53"/>
      <ellipse class="fil29" transform="matrix(0.248744 0.117525 -0.1178 0.249325 7688.2 494.948)" rx="234.44" ry="277.53"/>
      <ellipse class="fil30" transform="matrix(0.317602 0.150059 -0.133195 0.281909 7691.06 487.876)" rx="89.54" ry="130.35"/>
      <circle class="fil7" transform="matrix(0.32015 0.151262 -0.151262 0.32015 7685.85 452.579)" r="66.87"/>
     </g>
    </g>
    <path class="fil27" d="M7572.74 548.6c43.11,2.49 71.39,23.08 92.94,51.89 61.96,-24.11 167.83,-200.86 72.03,-258.56 -67.61,-40.72 -219.1,39.61 -164.96,206.67z"/>
    <path class="fil0" d="M7803.2 323.16c-23.11,-48.14 -52.81,-93.42 -84.16,-136.55l-16.34 -22.47 26.57 -8.12c14.89,-4.55 29.77,-9.09 44.65,-13.65l11.29 -3.44 8.4 8.28c38.1,37.55 70.98,85.22 68.75,140.98l-0.26 6.45 -4 5.06c-7.17,9.06 -14.35,18.11 -21.52,27.17l-19.67 24.84 -13.71 -28.57z"/>
    <path class="fil13" d="M7821.06 314.59c-22.9,-47.71 -52.83,-94 -85.99,-139.62 14.88,-4.54 29.76,-9.08 44.65,-13.64 41.29,40.69 64.6,82.57 62.86,126.09 -7.17,9.06 -14.35,18.11 -21.52,27.17z"/>
    <path class="fil0" d="M7363.8 143.4c6.2,-14.27 12.39,-28.54 18.59,-42.82l4.69 -10.84 11.75 -1.02c53.23,-4.63 110.95,1.32 151.91,39.13l4.74 4.38 1.25 6.33c2.24,11.34 4.49,22.67 6.72,34.01l6.14 31.08 -30.63 -8.09c-51.62,-13.65 -105.36,-20.41 -158.51,-24.53l-27.7 -2.15 11.05 -25.48z"/>
    <path class="fil13" d="M7544.02 176.41c-51.18,-13.52 -105.82,-20.76 -162.05,-25.13 6.2,-14.27 12.39,-28.55 18.59,-42.82 57.75,-5.03 104.74,4.4 136.75,33.94 2.23,11.34 4.48,22.66 6.72,34z"/>
    <path class="fil30" d="M7230.86 737.16c-39.84,-39.3 -75.41,-88.54 -95.81,-140.92 -14.42,-37.08 -25.23,-87.75 -4.36,-124.51 63.7,-112.19 261.39,1.66 329.96,57.33 24.59,19.97 43.87,46.68 37.19,79.86 -5.45,27.06 -26.97,49.11 -47.32,66.28 -53.43,45.12 -133.11,65.86 -201.72,68.86l-10.48 0.45 -7.47 -7.36z"/>
    <path class="fil31" d="M7435 656.82c-41.42,34.98 -110.14,59.85 -187.25,63.22 -86.02,-84.87 -122.66,-189.72 -96.15,-236.43 52.11,-91.78 236.21,17.31 293.88,64.13 49.29,40.02 30.94,74.11 -10.49,109.08z"/>
    <path class="fil32" d="M7354.49 489.52c28.53,66.42 16.59,138.47 -110.71,226.55l0 -0.01c-83.17,-84.14 -118.28,-186.48 -92.17,-232.46 34.62,-60.98 127.52,-33.27 202.88,5.91z"/>
    <path class="fil7" d="M7354.49 489.52c-20.37,-6.56 -40.09,-12 -58.46,-16.13 0.64,6.61 -0.36,13.23 -3.26,19.36 -10.15,21.49 -39.66,28.86 -65.91,16.47 -17.92,-8.47 -29.69,-23.97 -32.11,-39.79 -88.31,31.59 17.19,200.62 53,250.61 -86.02,-84.87 -122.66,-189.72 -96.15,-236.43 34.63,-60.98 127.52,-33.27 202.88,5.91z"/>
    <ellipse class="fil2" transform="matrix(0.270362 0.127739 -0.127739 0.270362 7060.16 605.091)" rx="70.69" ry="62.61"/>
    <path class="fil0" d="M7501.12 1637.39c-18.43,-78.97 -20.6,-137.32 -12.26,-197.17 -31.74,58.88 -55.83,125.54 -14.38,207.49 8.27,16.35 30.43,5.9 26.65,-10.32z"/>
    <ellipse class="fil16" transform="matrix(0.3826 0.180769 -0.180769 0.3826 6822.62 1052.62)" rx="46.18" ry="59.36"/>
    <ellipse class="fil16" transform="matrix(0.3826 0.180769 -0.180769 0.3826 6806.29 1128.83)" rx="24.29" ry="32.1"/>
    <path class="fil0" d="M6640.91 880.53c39.76,8.79 52.73,59.22 44.98,94.28 -7.75,35.05 -40.77,75.32 -80.53,66.53 -18.88,-4.17 -33.16,-19.61 -41.3,-36.46 -8.85,-18.31 -11.4,-39.61 -7.01,-59.48 4.38,-19.84 15.62,-37.87 31.63,-50.41 14.51,-11.37 33.74,-18.55 52.24,-14.46z"/>
    <path class="fil8" d="M6635.72 904.01c-19.25,-4.26 -48.23,15.14 -55.18,46.58 -6.96,31.43 10.77,63.01 30.02,67.26 19.25,4.26 44.9,-16.8 51.85,-48.23 6.95,-31.44 -7.44,-61.34 -26.69,-65.6z"/>
    <path class="fil15" d="M6604.94 1015.83c1.85,0.92 3.72,1.6 5.61,2.02 19.25,4.26 44.9,-16.8 51.85,-48.23 4.15,-18.81 0.67,-37.09 -6.93,-49.64 -1.45,-0.64 -2.93,-1.14 -4.46,-1.48 -19.25,-4.25 -48.23,15.14 -55.18,46.58 -4.16,18.83 0.53,37.72 9.1,50.75z"/>
    <path class="fil15" d="M6469.04 891.95c35.6,34.54 25.34,77.41 1.24,100.36 -15.17,-2.6 -29.57,-9.15 -40.96,-18.12 -47.47,-37.43 -19.38,-81.2 21.9,-95.64 6.36,3.62 12.41,8.15 17.82,13.4z"/>
    <g>
     <path class="fil0" d="M7591.84 2448.05c7.31,-32.65 24.3,-61.9 50.34,-84.5 24.73,-21.45 59.24,-37.58 92.37,-38.22 36.24,-0.7 69.74,15.54 93.44,42.71 17.04,19.52 27.78,42.98 32.95,67.83 24.29,-11.03 51.03,-15.19 78.5,-9.79 36.22,7.1 67.42,29.89 86.59,61.28 20.6,33.73 25.41,73.78 14.64,111.7 -10.36,36.52 -33.53,66.9 -61.96,91.24 29.54,84.76 30.31,176.12 -31.73,247.58 -50.36,58.01 -129.7,87.33 -204.96,91.94 -91.21,5.58 -176.84,-38.11 -229.82,-111.79 -44.08,-61.3 -62.4,-138.35 -45.87,-211.32l-4.07 0.32 -7.47 -13.63c-36.76,-67.03 -58.24,-137.15 -1.19,-201.33 36.92,-41.53 87.37,-54 138.22,-44z"/>
     <path class="fil1" d="M7471.6 2508.04c41.16,-46.3 97.17,-44.98 140.36,-29.52 4.04,-86.84 77.57,-128.26 123.06,-129.14 56.78,-1.11 107.69,50.5 105.47,127.56 125.96,-103.61 282.3,93.02 95.39,215.39 5.38,-1.7 10.75,-3.41 16.12,-5.11 80.27,210.15 -71.57,310 -211.43,318.57 -175.26,10.74 -301.32,-173.66 -240.83,-325.83 -7.94,0.62 -15.89,1.24 -23.84,1.86 -28.85,-52.64 -55.53,-116.15 -4.3,-173.78z"/>
     <path class="fil0" d="M7949.46 2496.42c35.3,20.29 32.56,72.29 14.67,103.42 -17.9,31.12 -61.45,59.65 -96.76,39.36 -16.76,-9.64 -25.76,-28.65 -28.48,-47.17 -2.95,-20.12 0.98,-41.2 11.13,-58.84 10.13,-17.62 26.25,-31.46 45.27,-38.62 17.25,-6.5 37.75,-7.59 54.17,1.85z"/>
     <path class="fil8" d="M7937.47 2517.27c-17.09,-9.82 -50.55,-0.01 -66.6,27.91 -16.04,27.91 -8.6,63.34 8.49,73.16 17.09,9.83 47.88,-2.57 63.92,-30.49 16.05,-27.91 11.28,-60.75 -5.81,-70.58z"/>
     <path class="fil15" d="M7874.61 2614.73c1.48,1.43 3.07,2.64 4.74,3.61 17.09,9.83 47.88,-2.57 63.92,-30.49 9.61,-16.7 11.75,-35.18 8.26,-49.43 -1.19,-1.04 -2.46,-1.96 -3.8,-2.73 -17.1,-9.83 -50.56,-0.01 -66.6,27.9 -9.61,16.72 -10.8,36.15 -6.52,51.15z"/>
     <path class="fil0" d="M7803.21 2444.37c20.9,38.61 16.08,83.2 -16.62,113.47 -26.73,24.76 -69.64,34.77 -100.45,11.42 -39.44,-29.89 -47.46,-85.13 -27.2,-128.52 14.75,-31.62 42.12,-54.09 78.39,-47.8 28.43,4.93 52.46,26.64 65.87,51.42z"/>
     <path class="fil8" d="M7782.06 2455.82c37.58,69.41 -41.94,124.17 -81.39,94.27 -31.9,-24.17 -34.35,-68.3 -19.93,-99.18 26.8,-57.42 79.4,-35.61 101.32,4.9z"/>
     <path class="fil15" d="M7782.06 2455.82c23.62,43.63 0.98,81.45 -28.88,96.12 -13.69,-7.03 -25.48,-17.59 -33.64,-29.55 -34.08,-49.93 5.83,-83.28 49.54,-84.69 4.99,5.37 9.4,11.49 12.98,18.12z"/>
     <path class="fil0" d="M7492.88 2541.95c21.75,-34.43 73.59,-29.54 103.95,-10.36 30.66,19.36 54.88,62.86 33.24,97.12 -10.84,17.18 -32.41,24.53 -51.74,26 -20.72,1.58 -42.77,-3.03 -60.42,-14.18 -32.77,-20.71 -46.15,-65.11 -25.02,-98.58z"/>
     <path class="fil8" d="M7513.22 2554.79c-10.52,16.67 -9.69,48.21 17.53,65.4 27.22,17.19 68.46,12.35 78.98,-4.32 10.53,-16.66 1.48,-46.75 -25.74,-63.94 -27.23,-17.19 -60.23,-13.8 -70.77,2.87z"/>
     <path class="fil15" d="M7558.91 2630.14c21.77,3.07 43.57,-2.8 50.81,-14.28 10.53,-16.66 1.48,-46.76 -25.74,-63.94 -2.74,-1.73 -5.55,-3.26 -8.38,-4.58 -11.77,2.07 -21.68,7.75 -26.94,16.17 -10.9,17.42 -12.13,48.57 10.26,66.63z"/>
     <path class="fil0" d="M7833.19 2661.03c40.23,23.13 68.62,60.63 79.81,105.67 9.98,40.15 5.5,84.42 -15.26,120.53 -21.94,38.15 -64.54,64.84 -105.89,77.24 -46.63,13.98 -98.34,12.35 -141.22,-12.3 -41.91,-24.1 -73.57,-65.76 -89.89,-110.88 -14.87,-41.1 -18.78,-91.33 3.74,-130.51 23.39,-40.69 75.15,-62.3 119.32,-70.27 48.98,-8.84 105.71,-4.6 149.4,20.53z"/>
     <path class="fil8" d="M7821.2 2681.88c74.41,42.78 89.58,134.41 55.68,193.36 -33.9,58.96 -139.86,98.85 -214.27,56.07 -74.41,-42.78 -111.19,-149.59 -77.3,-208.54 33.9,-58.96 161.47,-83.67 235.88,-40.89z"/>
     <path class="fil15" d="M7821.2 2681.88c74.41,42.78 89.58,134.41 55.68,193.36 -25.01,43.49 -89.24,76.61 -151.09,73.81 -87.71,-56.16 -80.39,-163.55 -26.02,-214.27 30.77,-28.71 70.46,-49.45 111.71,-57.96 3.32,1.57 6.58,3.25 9.72,5.05z"/>
     <path class="fil8" d="M7738.82 2349.4c-54.13,24.95 -97.47,60.99 -125.27,113.07 11.72,-75.89 78.87,-112.25 121.46,-113.08 1.27,-0.03 2.54,-0.02 3.8,0.01zm-153.2 121.98c-50.88,12.94 -109.25,22.17 -125.88,90.14 -11.22,45.85 8.47,76.01 23.84,102.45 12.59,2.44 25.17,4.88 37.76,7.32 -31.03,65.61 -26.79,148.87 32.98,259.9 -62.46,-65.58 -89.36,-163.73 -54.58,-251.22 -7.94,0.62 -15.89,1.24 -23.84,1.86 -28.85,-52.64 -55.53,-116.15 -4.3,-173.78 33.19,-37.33 76.03,-43.7 114.02,-36.66z"/>
    </g>
    <g>
     <path class="fil0" d="M6349.55 2683.04c-0.7,-33.44 8.82,-65.91 28.71,-94.08 18.89,-26.74 48.56,-50.64 80.57,-59.17 35.01,-9.33 71.43,-1.56 100.94,19.15 21.22,14.89 37.25,35.1 48.2,58 20.95,-16.51 45.93,-26.93 73.89,-28.27 36.86,-1.75 72.61,12.94 98.71,38.83 28.07,27.83 42.3,65.57 40.9,104.97 -1.34,37.94 -16.59,72.97 -38.37,103.39 48.93,75.26 71.5,163.79 28.31,248.01 -35.05,68.35 -105.1,115.76 -177.07,138.22 -87.23,27.21 -180.83,5.22 -249.87,-53.67 -57.44,-49 -93.63,-119.45 -95.01,-194.24l-3.87 1.28 -10.5 -11.45c-51.7,-56.31 -89.31,-119.28 -49.24,-195.22 25.92,-49.14 71.95,-73.3 123.7,-75.74z"/>
     <path class="fil1" d="M6247.12 2770c28.91,-54.79 83.62,-66.89 129.25,-62.17 -16.82,-85.29 44.7,-143.08 88.66,-154.8 54.87,-14.63 116.64,23.32 132.87,98.68 97.57,-130.71 296.35,22.9 144.08,186.36 4.81,-2.93 9.61,-5.87 14.42,-8.81 128.13,184.91 4.53,318.13 -129.23,359.85 -167.62,52.28 -334.07,-96.67 -311.67,-258.89 -7.57,2.5 -15.13,5.01 -22.7,7.5 -40.59,-44.21 -81.66,-99.53 -45.68,-167.73z"/>
     <path class="fil0" d="M6708.37 2644.6c39.13,11.28 48.9,62.42 38.95,96.92 -9.95,34.49 -45.43,72.6 -84.56,61.32 -18.58,-5.36 -31.86,-21.67 -38.92,-39 -7.67,-18.83 -8.88,-40.25 -3.25,-59.8 5.63,-19.52 17.98,-36.81 34.75,-48.32 15.19,-10.43 34.83,-16.38 53.03,-11.13z"/>
     <path class="fil8" d="M6701.71 2667.7c-18.94,-5.46 -49.09,12.07 -58.01,43 -8.91,30.94 6.78,63.56 25.72,69.02 18.95,5.47 45.87,-13.93 54.79,-44.87 8.91,-30.94 -3.56,-61.69 -22.5,-67.15z"/>
     <path class="fil15" d="M6663.95 2777.36c1.78,1.03 3.61,1.84 5.47,2.37 18.95,5.47 45.87,-13.93 54.79,-44.87 5.34,-18.52 3.01,-36.97 -3.79,-49.98 -1.4,-0.73 -2.86,-1.32 -4.35,-1.75 -18.95,-5.46 -49.1,12.07 -58.01,43 -5.34,18.54 -1.85,37.68 5.89,51.23z"/>
     <path class="fil0" d="M6553.94 2628.98c29.51,32.5 35.48,76.96 10.96,114.17 -20.04,30.42 -59.32,50.39 -94.82,35.08 -45.44,-19.61 -66.41,-71.34 -57.11,-118.31 6.79,-34.23 27.99,-62.59 64.72,-65.15 28.78,-2 57.31,13.34 76.26,34.21z"/>
     <path class="fil8" d="M6536.13 2645.14c53.07,58.44 -11.07,130.6 -56.52,111 -36.75,-15.85 -49.66,-58.11 -43.04,-91.55 12.31,-62.16 68.6,-53.54 99.56,-19.45z"/>
     <path class="fil15" d="M6536.13 2645.14c33.35,36.73 20.41,78.87 -5.09,100.25 -14.98,-3.56 -28.94,-11 -39.73,-20.67 -45.02,-40.34 -14.23,-82.26 27.88,-94.07 6.12,4.02 11.87,8.91 16.94,14.49z"/>
     <path class="fil0" d="M6275.89 2797.84c12.89,-38.62 64.4,-46.25 98.46,-34.88 34.4,11.48 68.31,47.93 55.47,86.38 -6.43,19.26 -25.62,31.55 -44.03,37.6 -19.73,6.47 -42.25,7.27 -62.06,0.65 -36.77,-12.27 -60.37,-52.2 -47.84,-89.75z"/>
     <path class="fil8" d="M6298.7 2805.46c-6.25,18.7 2.1,49.13 32.64,59.32 30.54,10.19 69.42,-4.35 75.66,-23.05 6.25,-18.7 -9.74,-45.76 -40.28,-55.95 -30.54,-10.19 -61.79,0.98 -68.02,19.68z"/>
     <path class="fil15" d="M6361.07 2867.72c21.86,-2.22 41.63,-13.13 45.93,-26 6.25,-18.7 -9.74,-45.76 -40.28,-55.95 -3.08,-1.03 -6.16,-1.84 -9.23,-2.44 -10.94,4.82 -19.2,12.7 -22.31,22.13 -6.43,19.52 -0.18,50.06 25.88,62.26z"/>
     <path class="fil0" d="M6634.79 2832.22c44.59,12.85 81.11,42.49 102.73,83.54 19.29,36.61 25.5,80.67 13.96,120.7 -12.19,42.28 -47.17,78.38 -84.38,100.29 -41.94,24.71 -92.55,35.48 -140.08,21.78 -46.46,-13.39 -87.15,-46.29 -113.77,-86.2 -24.25,-36.36 -40.06,-84.2 -27.54,-127.62 13,-45.1 58.1,-78.45 99.09,-96.74 45.45,-20.29 101.55,-29.71 149.97,-15.75z"/>
     <path class="fil8" d="M6628.13 2855.32c82.47,23.77 119.09,109.12 100.25,174.47 -18.83,65.34 -112.2,129.4 -194.68,105.62 -82.47,-23.77 -143.7,-118.7 -124.86,-184.04 18.84,-65.34 136.81,-119.82 219.29,-96.04z"/>
     <path class="fil15" d="M6628.13 2855.32c82.47,23.77 119.09,109.12 100.25,174.47 -13.89,48.22 -68.36,95.7 -129.09,107.76 -98.58,-33.58 -117.13,-139.61 -76.44,-201.84 23.03,-35.23 56.62,-64.84 94.63,-82.97 3.61,0.74 7.16,1.59 10.66,2.59z"/>
     <path class="fil8" d="M6468.72 2552.14c-46.61,37.14 -80.08,82.5 -94.63,139.71 -6.76,-76.49 49.78,-127.84 90.94,-138.82 1.22,-0.32 2.46,-0.62 3.69,-0.89zm-119.64 155.04c-46.31,24.71 -100.8,47.62 -100.71,117.59 0.06,47.2 26.37,71.79 47.62,93.79 12.8,-0.63 25.61,-1.27 38.41,-1.91 -14.46,71.13 9.53,150.95 94.09,244.5 -76.31,-48.77 -125.88,-137.64 -113,-230.92 -7.57,2.5 -15.13,5.01 -22.7,7.5 -40.59,-44.21 -81.66,-99.53 -45.68,-167.73 23.31,-44.17 63.39,-60.59 101.97,-62.83z"/>
    </g>
    <path class="fil0" d="M7647.94 3477.29c5.96,14.58 11.93,29.17 17.9,43.76l6.34 15.48 -12.33 11.33c-46.44,42.67 -101.17,57 -162.86,51.93l-14.22 -1.17 -5.79 -13.04c-5.4,-12.18 -8.94,-24.57 -11.02,-37.08l-1.44 0.26c-28.79,5.15 -57.28,3.41 -83.8,-9.77l-29.06 -14.43 22.26 -23.61c25.37,-26.9 47.1,-58.39 56.64,-94.53l3.65 -13.83 13.9 -3.4c50.91,-12.43 101.83,-24.86 152.75,-37.3l16.08 -3.93 9.41 13.62c15.18,21.96 36.53,37.57 60.36,49.1l34.83 16.85 -30.54 23.78c-14.11,10.98 -28.32,19.52 -43.04,25.98z"/>
    <path class="fil33" d="M7643.57 3530.16c-42.99,39.5 -92.22,49.97 -144.63,45.66 -16.53,-37.27 -12.57,-78.03 -3.88,-119.61 7.12,-5.17 14.22,-10.34 21.33,-15.52 -17.75,39.47 -24.64,78.38 -6.68,115.96 45.75,7.06 89.73,-10.82 133.86,-26.5z"/>
    <path class="fil2" d="M7391.39 3517.45c30.66,-32.51 52.46,-67.23 62.4,-104.89l33.23 -8.11 -14.86 62.86 -1.56 0.76c-3.44,19 -6.89,38.01 -10.33,57.02 -24.08,4.31 -47.26,3.1 -68.87,-7.63z"/>
    <path class="fil2" d="M7487.02 3404.44l0.19 -0.05 2.38 -0.59 2.38 -0.58 2.38 -0.59 2.38 -0.58 2.38 -0.59 2.39 -0.59 2.38 -0.58 2.38 -0.59 2.38 -0.58 2.39 -0.59 2.38 -0.58 2.39 -0.59 2.38 -0.59 2.38 -0.58 2.38 -0.59 2.39 -0.58 2.38 -0.59 2.38 -0.58 2.38 -0.59 2.38 -0.58 2.38 -0.59 2.39 -0.59 2.38 -0.58 2.38 -0.59 2.38 -0.58 2.38 -0.59 2.39 -0.59 2.38 -0.58 2.38 -0.59 2.38 -0.58 2.38 -0.59 2.39 -0.58 2.38 -0.59 2.38 -0.59 2.38 -0.58 2.38 -0.59 2.39 -0.58 2.38 -0.59 2.38 -0.59 2.38 -0.58 2.38 -0.59 2.39 -0.58 2.38 -0.59 2.38 -0.58 2.38 -0.59 2.39 -0.58 2.38 -0.59 2.38 -0.59 2.38 -0.58 2.38 -0.59c16.98,24.56 40.75,43.09 69.66,57.07 -26.76,20.84 -59.49,37.47 -115.79,37.39 19.22,6.72 40.59,8.88 62.51,9.9 6.89,16.84 13.78,33.69 20.67,50.53 -44.13,15.68 -88.11,33.56 -133.86,26.5 -17.96,-37.59 -11.07,-76.49 6.68,-115.96 -7.11,5.18 -14.21,10.35 -21.33,15.52l-0.38 0.19 -0.39 0.19 -0.38 0.18 -0.38 0.19 -0.39 0.18 -0.38 0.19 -0.39 0.18 -0.38 0.19 -0.38 0.18 -0.39 0.19 -0.38 0.19 -0.39 0.18 -0.38 0.19 -0.38 0.18 -0.39 0.19 -0.38 0.18 -0.39 0.19 -0.38 0.18 -0.38 0.19 -0.39 0.18 -0.38 0.19 -0.39 0.19 -0.38 0.18 -0.38 0.19 -0.39 0.18 -0.38 0.19 -0.39 0.18 -0.38 0.19 -0.38 0.18 -0.39 0.19 -0.38 0.19 -0.38 0.18 -0.39 0.19 -0.38 0.18 -0.39 0.19 -0.38 0.18 -0.39 0.19 -0.38 0.19 -0.38 0.18 -0.39 0.18 -0.38 0.19 -0.38 0.19 -0.39 0.18 -0.38 0.19 -0.39 0.18 -0.38 0.19 -0.38 0.18 -0.39 0.19 -0.38 0.19 -0.39 0.18 -0.38 0.19 -0.38 0.18 -0.39 0.19 -0.38 0.18 -0.39 0.19 -0.38 0.18 -0.38 0.19 -0.39 0.18 -0.38 0.19 -0.35 0.17 14.86 -62.86z"/>
    <path class="fil33" d="M7391.39 3517.45c30.66,-32.51 52.46,-67.23 62.4,-104.89l15.88 -3.88 -0.01 0.01c-12.6,41.16 -29.09,80.49 -50.45,117.51 -9.51,-1.45 -18.8,-4.27 -27.82,-8.74z"/>
   </g>
   <path class="fil34" d="M2950.84 819.31l0 -455.04c0,-138.12 112.53,-250.65 250.65,-250.65l113.94 0c75.3,0 136.73,61.42 136.73,136.72l0 603.92c24.22,-21.72 56.18,-34.96 91.14,-34.96l2268.73 0c576.66,0 1046.69,470.03 1046.69,1046.7 0,576.67 -470.02,1046.69 -1046.69,1046.69l-1904.14 0 0 455.04c0,138.12 -112.53,250.66 -250.66,250.66l-113.94 0c-75.3,0 -136.72,-61.42 -136.72,-136.72l0 -603.93c-24.22,21.72 -56.19,34.96 -91.15,34.96l-2268.73 0c-576.67,0 -1046.69,-470.02 -1046.69,-1046.69 0,-576.66 470.03,-1046.7 1046.69,-1046.7l1904.15 0z"/>
   <g>
    <path class="fil35" d="M1046.69 956.03l2268.73 0 0 1819.95 -2268.73 0c-501.21,0 -909.98,-408.77 -909.98,-909.98 0,-501.2 408.78,-909.98 909.98,-909.98zm2496.6 0l2268.73 0c501.2,0 909.98,408.77 909.98,909.98 0,501.2 -408.77,909.98 -909.98,909.98l-2268.73 0 0 -1819.95z"/>
    <path class="fil35" d="M3657.23 3481.67l-113.94 0 0 -933.56 227.87 0 0 819.63c0,62.68 -51.26,113.93 -113.93,113.93z"/>
    <path class="fil35" d="M3201.48 250.34l113.94 0 0 933.55 -227.87 0 0 -819.62c0,-62.69 51.26,-113.93 113.93,-113.93z"/>
   </g>
   <path class="fil34" d="M1046.69 1183.9l4765.33 0c375.44,0 682.11,306.67 682.11,682.11 0,375.43 -306.67,682.11 -682.11,682.11l-4765.33 0c-375.43,0 -682.11,-306.67 -682.11,-682.11 0,-375.43 306.68,-682.11 682.11,-682.11z"/>
   <rect class="fil36" x="506.09" y="1325.4" width="5846.53" height="1081.21" rx="540.61" ry="540.61"/>
   <path class="fil37" d="M958.4 1875.83c0,127.18 67.59,195.48 159.88,195.48 44.33,0 79.21,-15.26 106.09,-45.78l0 39.24 159.15 0 0 -86.48 -42.88 0 0 -428.04 -159.87 0 0 86.48 43.6 0 0 91.57c-25.43,-31.25 -61.04,-46.51 -105.37,-46.51 -93.02,0 -160.6,67.59 -160.6,194.04zm196.21 -90.84c34.16,0 58.87,19.62 69.76,53.77l0 81.39c-10.89,32.71 -37.06,51.59 -69.76,51.59 -44.33,0 -77.03,-33.42 -77.03,-93.74 0,-60.32 32.71,-93.02 77.03,-93.02zm667.73 90.84c0,-126.45 -85.03,-194.04 -193.31,-194.04 -108.28,0 -193.31,67.59 -193.31,194.04 0,127.18 85.03,195.48 193.31,195.48 108.28,0 193.31,-68.31 193.31,-195.48zm-119.18 -1.46c0,61.05 -30.52,93.75 -74.13,93.75 -43.6,0 -74.13,-32.71 -74.13,-93.75 0,-60.32 30.53,-93.02 74.13,-93.02 43.61,0 74.13,32.7 74.13,93.02zm172.1 190.4l202.03 0 0 -86.48 -42.88 0 0 -156.25c11.63,-26.16 31.25,-47.23 59.59,-47.23 40.7,0 58.86,27.61 58.86,93.74l0 196.21 159.15 0 0 -86.48 -42.88 0 0 -138.81c0,-104.65 -48.69,-158.43 -136.62,-158.43 -43.6,0 -74.85,18.9 -98.11,45.05l0 -37.79 -159.15 0 0 86.49 42.88 0 0 203.48 -42.88 0 0 86.48zm681.54 -290.69l42.88 0 0 337.93 -42.88 0 0 85.75 202.03 0 0 -85.75 -42.88 0 0 -85.76c25.44,29.79 60.32,45.05 104.65,45.05 93.02,0 160.61,-68.31 160.61,-195.48 0,-126.45 -67.59,-194.04 -161.33,-194.04 -42.88,0 -77.76,15.26 -103.93,45.78l0 -39.24 -159.15 0 0 85.76zm159.15 63.22c9.44,-34.15 35.61,-52.32 68.32,-52.32 45.78,0 77.76,32.7 77.76,93.02 0,60.32 -31.98,93.74 -77.76,93.74 -31.98,0 -57.41,-18.16 -68.32,-50.87l0 -83.57zm336.35 38.52c0,127.18 67.59,195.48 159.88,195.48 43.6,0 78.48,-14.54 104.65,-42.88l0 36.34 159.15 0 0 -86.48 -42.88 0 0 -289.97 -116.28 0 0 37.79c-25.44,-29.79 -59.59,-44.33 -103.93,-44.33 -93.02,0 -160.6,67.59 -160.6,194.04zm196.21 -90.84c32.71,0 57.41,18.17 68.32,50.14l0 87.21c-10.9,31.25 -37.07,49.41 -68.32,49.41 -44.33,0 -77.03,-33.42 -77.03,-93.74 0,-60.32 32.71,-93.02 77.03,-93.02zm290.56 279.78l202.03 0 0 -86.48 -42.88 0 0 -156.25c11.63,-26.16 31.25,-47.23 59.59,-47.23 40.7,0 58.86,27.61 58.86,93.74l0 196.21 159.15 0 0 -86.48 -42.88 0 0 -138.81c0,-104.65 -48.69,-158.43 -136.62,-158.43 -43.6,0 -74.85,18.9 -98.11,45.05l0 -37.79 -159.15 0 0 86.49 42.88 0 0 203.48 -42.88 0 0 86.48zm682.27 -382.98c-113.36,0 -192.58,67.59 -192.58,194.04 0,127.18 79.22,195.48 194.76,195.48 54.5,0 114.09,-17.44 154.79,-48.69l-26.89 -93.74c-31.25,22.52 -71.94,39.24 -113.36,39.24 -51.6,0 -90.12,-32.71 -90.12,-93.75 0,-58.13 36.34,-90.84 85.03,-93.02 8,0.73 15.99,2.18 23.25,4.35l5.82 73.41 103.92 0 0 -151.89c-32.7,-13.81 -95.2,-25.44 -144.62,-25.44zm222.26 382.98l202.03 0 0 -86.48 -42.88 0 0 -156.25c11.63,-26.16 31.25,-47.23 59.59,-47.23 40.7,0 58.86,27.61 58.86,93.74l0 196.21 159.15 0 0 -86.48 -42.88 0 0 -138.81c0,-104.65 -48.69,-158.43 -136.62,-158.43 -43.6,0 -74.85,18.9 -98.11,45.05l0 -175.86 -159.15 0 0 86.48 42.88 0 0 341.56 -42.88 0 0 86.48zm598.7 -412.77c47.24,0 79.22,-18.17 79.22,-58.87 0,-39.96 -31.98,-58.86 -79.22,-58.86 -48.69,0 -79.21,18.9 -79.21,58.86 0,40.7 30.52,58.87 79.21,58.87zm-98.84 122.09l44.34 0 0 204.21 -44.34 0 0 86.48 204.94 0 0 -86.48 -44.33 0 0 -289.97 -160.61 0 0 85.76zm238.25 -85.76l0 85.76 55.96 0 0 128.63c0,118.45 47.96,170.06 127.18,170.06 28.33,0 60.31,-6.54 95.92,-19.63l-13.08 -102.47c-19.62,8 -37.79,13.09 -53.05,13.09 -23.98,0 -40.69,-14.54 -40.69,-58.14l0 -131.53 96.65 0 0 -85.76 -96.65 0 0 -107.55 -116.28 0 0 107.55 -55.96 0zm718.6 187.5c0,-126.45 -85.03,-194.04 -193.31,-194.04 -108.28,0 -193.31,67.59 -193.31,194.04 0,127.18 85.03,195.48 193.31,195.48 108.28,0 193.31,-68.31 193.31,-195.48zm-119.18 -1.46c0,61.05 -30.52,93.75 -74.13,93.75 -43.6,0 -74.13,-32.71 -74.13,-93.75 0,-60.32 30.53,-93.02 74.13,-93.02 43.61,0 74.13,32.7 74.13,93.02z"/>
  </g>
 </g>
</svg>
