<?xml version="1.0" encoding="UTF-8"?>
<!DOCTYPE svg PUBLIC "-//W3C//DTD SVG 1.1//EN" "http://www.w3.org/Graphics/SVG/1.1/DTD/svg11.dtd">
<!-- Creator: CorelDRAW -->
<svg xmlns="http://www.w3.org/2000/svg" xml:space="preserve" width="190.915mm" height="190.915mm" version="1.1" style="shape-rendering:geometricPrecision; text-rendering:geometricPrecision; image-rendering:optimizeQuality; fill-rule:evenodd; clip-rule:evenodd"
viewBox="0 0 19060.37 19060.37"
 xmlns:xlink="http://www.w3.org/1999/xlink"
 xmlns:xodm="http://www.corel.com/coreldraw/odm/2003">
 <defs>
  <style type="text/css">
   <![CDATA[
    .fil0 {fill:none}
    .fil3 {fill:#B80609;fill-rule:nonzero}
    .fil2 {fill:#EE2A2C;fill-rule:nonzero}
    .fil1 {fill:#F8BF71;fill-rule:nonzero}
    .fil4 {fill:#FFCC00;fill-rule:nonzero}
   ]]>
  </style>
 </defs>
 <g id="Capa_x0020_1">
  <metadata id="CorelCorpID_0Corel-Layer"/>
  <rect class="fil0" x="-0" y="-0" width="19060.37" height="19060.37"/>
  <path class="fil1" d="M4271.6 6008.67c0,0 -471.13,-3630.59 1545.5,-3406.16 1992.76,221.24 2384.32,2694.68 4929.39,4615.82 3652.88,2756.77 5266.82,2868.18 5938.5,3853.43 671.68,985.24 493.41,1836.78 493.41,1836.78 0,0 -5489.65,157.58 -8246.42,-2196.49 -2756.77,-2354.07 -4660.4,-4703.37 -4660.4,-4703.37l0.01 -0.01z"/>
  <path class="fil2" d="M2052.8 1571.1c1426.14,-713.06 2721.75,302.42 3025.76,1165.11 283.32,811.75 1792.22,3204.02 2845.9,4302.27 811.75,848.36 3288.38,3175.38 5265.23,4033.29 2218.77,962.96 4168.57,762.4 5042.4,1389.52 873.82,627.11 1025.03,2296.78 600.05,2812.47 -424.98,515.7 -1473.89,1087.1 -3176.97,459.99 -1703.09,-627.12 -7192.74,-1882.94 -9747.37,-4548.98 -2554.62,-2666.04 -5242.93,-7574.73 -5042.39,-8134.99 200.54,-560.26 471.13,-1118.94 1187.38,-1478.66z"/>
  <path class="fil3" d="M1874.55 6702.63c-502.96,-913.62 -1254.23,-1691.94 -1142.81,-3092.6 55.71,-693.97 448.85,-1243.1 448.85,-1243.1 0,0 -89.12,996.38 493.41,1422.95 582.55,426.57 1434.1,716.25 2083.49,1636.24 649.4,919.99 1567.79,3226.31 4482.13,5467.37 2966.87,2282.45 5355.95,2061.2 6430.33,2779.05 1075.96,716.25 1322.68,1882.94 2599.19,1859.07 1276.51,-22.28 1703.09,-515.7 1703.09,-515.7 0,0 -380.41,1322.67 -1814.5,1456.38 -1434.1,133.7 -2554.62,-493.42 -3181.75,-716.25 -627.11,-222.84 -6968.31,-2196.5 -8738.25,-4369.13 -1769.94,-2172.63 -3116.49,-4235.43 -3363.19,-4684.27l0.01 -0.01z"/>
  <path class="fil1" d="M4024.88 14590.93c2985.97,2376.36 6610.19,3562.15 8873.54,3001.88 2659.67,-658.94 2377.95,-2307.92 2174.22,-2734.47 -291.27,-604.84 -1367.23,-1031.4 -2397.05,-1276.51 -1031.39,-246.72 -3457.1,-849.95 -5893.93,-3092.6 -2823.61,-2599.19 -3420.49,-5876.43 -4997.83,-5892.35 -1040.95,-11.15 -1623.51,526.84 -1769.93,2105.77 -152.8,1656.93 942.26,5445.09 4010.99,7888.29l-0.01 -0.01z"/>
  <path class="fil4" d="M3606.27 1728.68c-410.65,-248.3 -768.77,125.73 -806.98,837.21 -30.24,568.22 194.18,1107.81 837.22,1419.77 537.98,261.03 1367.24,477.49 1650.56,1037.76 283.32,560.27 30.24,2465.5 837.21,3264.51 806.98,799.01 2648.54,625.52 3356.83,1357.69 708.28,732.17 854.72,2145.56 1886.12,2675.59 1031.4,530.02 1972.08,-216.47 2920.71,74.81 948.64,291.28 1725.37,1620.32 1830.42,1814.5 105.05,194.18 444.07,582.55 784.7,358.12 372.44,-246.71 30.24,-679.64 -89.13,-896.11 -119.37,-216.47 -1128.49,-1867.03 -2374.77,-2210.82 -1246.27,-343.8 -1882.93,276.95 -2613.52,-30.24 -732.16,-305.6 -754.45,-1980.04 -1836.79,-2696.29 -1082.33,-716.25 -2510.06,-477.49 -3151.5,-1142.81 -641.44,-665.32 -165.53,-2420.93 -649.4,-3137.18 -545.93,-806.97 -2242.65,-1146.01 -2449.57,-1688.76 -171.9,-439.3 202.14,-835.62 -132.1,-1037.76l-0.01 0z"/>
 </g>
</svg>
